<svg width="24" height="24" viewBox="0 0 24 24" fill="none" xmlns="http://www.w3.org/2000/svg">
<path d="M18.5603 22C18.2469 22 17.9341 21.8812 17.5753 21.6252C17.1987 21.3564 16.822 21.0888 16.4454 20.8205C15.5219 20.163 14.5666 19.4829 13.6314 18.8086C13.5643 18.7606 13.4613 18.6963 13.3365 18.6963C13.187 18.6963 13.0785 18.7855 13.0007 18.8631C12.5451 19.3184 12.0733 19.7738 11.6172 20.214L11.4946 20.3322C11.1281 20.6861 10.7626 20.8582 10.3776 20.8582C10.3485 20.8582 10.3188 20.857 10.2886 20.8553C9.73842 20.8188 9.34666 20.5077 9.09145 19.9029C8.41986 18.3145 7.73708 16.6849 7.06213 15.0606C6.97594 14.8526 6.84834 14.7269 6.64854 14.6516C6.03235 14.4204 5.41673 14.187 4.8011 13.9535C4.17764 13.7172 3.53291 13.4727 2.89769 13.2346C2.41639 13.0539 2.13768 12.8077 2 12.4387V12.127C2.13152 11.7325 2.41807 11.473 2.9503 11.2638L3.94426 10.8734C5.48221 10.2692 7.02071 9.66497 8.55922 9.06192C10.2141 8.41311 11.8696 7.76429 13.5245 7.11547C16.0139 6.13993 18.5033 5.16381 20.9921 4.18769C21.2406 4.09037 21.5075 4 21.7795 4C21.8349 4 21.8898 4.00348 21.9429 4.01101C22.5837 4.1008 22.9789 4.56482 22.999 5.2536C23.0096 5.6064 22.933 5.94934 22.8524 6.31256C22.8278 6.42263 22.8026 6.53675 22.7802 6.6503C22.0476 10.3364 21.2988 14.0839 20.5746 17.7074L20.1537 19.8137C20.1363 19.9012 20.1196 19.9887 20.1033 20.0761C20.0563 20.3247 20.0121 20.5593 19.9477 20.7904C19.7507 21.5012 19.3584 21.8923 18.7489 21.9855C18.6863 21.9954 18.6225 22 18.5598 22H18.5603ZM17.4052 8.38414C17.6151 8.38414 17.7723 8.53302 17.7964 8.75431C17.8132 8.90783 17.7511 9.02716 17.5591 9.20848C16.6625 10.0583 15.7665 10.9093 14.8705 11.7597C13.6006 12.9652 12.3308 14.1708 11.0592 15.3745C10.9932 15.4371 10.8829 15.5414 10.8936 15.7001C10.9042 15.8612 11.0374 15.955 11.0939 15.9956C12.6543 17.102 14.2381 18.2305 15.7699 19.3219C16.5109 19.8496 17.2513 20.3774 17.9923 20.9045C18.2324 21.0754 18.4232 21.1554 18.5922 21.1554C19.0584 21.1554 19.1704 20.5958 19.2123 20.3855L20.0888 15.9979C20.7425 12.726 21.3961 9.45411 22.0481 6.18222C22.0616 6.11386 22.0772 6.04609 22.0929 5.97773C22.1422 5.76339 22.1925 5.5421 22.1897 5.30169C22.1841 4.88169 21.9127 4.83651 21.7963 4.83651C21.7549 4.83651 21.7107 4.84114 21.6609 4.85157C21.5232 4.87938 21.395 4.92746 21.2853 4.97033C15.8057 7.11779 10.3255 9.26641 4.84475 11.4156C4.49385 11.5535 4.1435 11.6914 3.77972 11.835L2.74491 12.2429L3.26315 12.4665C3.29785 12.4815 3.32807 12.4949 3.35494 12.5064C3.40866 12.5302 3.4512 12.5493 3.49765 12.5667C3.81386 12.6872 4.13007 12.8071 4.44627 12.927C5.24827 13.2311 6.07712 13.5457 6.89031 13.8597C6.98321 13.8956 7.06996 13.913 7.15559 13.913C7.27088 13.913 7.38561 13.8805 7.50482 13.8139C9.61306 12.6385 11.7594 11.4475 13.8346 10.2952L15.2074 9.53289C15.4022 9.42456 15.5969 9.31623 15.7911 9.2079C16.2394 8.95823 16.7028 8.69986 17.1606 8.45018C17.2418 8.40615 17.3241 8.38356 17.4052 8.38356V8.38414ZM10.7217 16.8089C10.6523 16.8089 10.588 16.8367 10.5393 16.8865C10.4621 16.9665 10.4531 17.0725 10.4531 17.1449C10.4537 17.7514 10.4537 18.3574 10.4531 18.9859V20.1943L11.2277 19.443C11.6105 19.0716 11.9804 18.7125 12.3504 18.3539C12.45 18.2577 12.4628 18.1592 12.4561 18.0938C12.4416 17.9524 12.3324 17.8841 12.2916 17.8586C12.2877 17.8563 12.2843 17.854 12.281 17.8516C12.0593 17.6929 11.8371 17.5342 11.615 17.376C11.39 17.2156 11.165 17.0557 10.9406 16.8946C10.8779 16.8494 10.8079 16.8077 10.7212 16.8077L10.7217 16.8089ZM13.1607 11.6902C13.0427 11.6943 12.9525 11.736 12.8809 11.7759C11.4006 12.5974 9.92031 13.4188 8.44057 14.2414C8.40363 14.2623 8.35718 14.2826 8.30793 14.304C8.14899 14.3741 7.96878 14.4535 7.88986 14.633C7.79248 14.8538 7.91169 15.064 7.999 15.2176C8.02642 15.2656 8.05161 15.3108 8.06784 15.3485C8.33423 15.9892 8.60959 16.6386 8.87542 17.2665C8.97057 17.4919 9.22521 18.0926 9.22521 18.0926L9.4502 18.0752L9.65671 18.059V17.8441C9.65671 17.6541 9.65671 17.4641 9.65727 17.2741C9.65839 16.8077 9.65895 16.3258 9.65391 15.8507C9.65167 15.6567 9.71268 15.5153 9.85763 15.3792C10.6193 14.6626 11.39 13.9304 12.1349 13.2219L12.8378 12.5539C12.9486 12.4485 13.0589 12.3425 13.1691 12.2365L13.7618 11.6682L13.1602 11.6896L13.1607 11.6902Z" fill="white" stroke="white" stroke-width="0.6"/>
</svg>
