<svg width="56" height="56" viewBox="0 0 56 56" fill="none" xmlns="http://www.w3.org/2000/svg">
<g clip-path="url(#clip0_153_897)">
<path d="M-0.000186572 54.907C0.76996 53.1609 1.38812 51.3549 2.06912 49.5737C4.10044 44.2535 6.11568 38.9275 8.128 33.6C8.28436 33.185 8.52841 32.903 8.92152 32.6838C11.5944 31.1963 14.2526 29.6826 16.9255 28.1951C17.2835 27.9963 17.3332 27.8561 17.1009 27.5025C16.319 26.316 15.5708 25.109 14.8211 23.9021C8.82069 14.2305 14.6326 1.76365 25.894 0.134429C26.1599 0.0964384 26.4449 0.156347 26.6904 0H29.3151C30.471 0.226484 31.6503 0.346301 32.7683 0.75105C38.8213 2.93845 42.4485 7.17881 43.4276 13.554C43.9873 17.1967 43.1879 20.6173 41.2677 23.7647C40.499 25.0243 39.7157 26.2751 38.9046 27.5068C38.6635 27.8721 38.7453 28.0037 39.0902 28.1951C41.747 29.6753 44.3892 31.1788 47.0459 32.6575C47.4522 32.884 47.7167 33.1704 47.8819 33.6073C50.5343 40.6195 53.1954 47.6274 55.8595 54.6338C56.0013 55.0079 56.1036 55.3746 55.7996 55.7092C55.4182 56.13 55.0017 56.0263 54.5662 55.7794C52.2689 54.4774 49.9687 53.1828 47.6685 51.8853C45.7804 50.8215 43.8879 49.7651 42.01 48.6868C41.6988 48.5085 41.4737 48.526 41.1712 48.697C37.0355 51.0393 32.8881 53.3596 28.7568 55.7092C28.2132 56.019 27.7835 56.0146 27.2428 55.7063C23.1276 53.3655 18.9963 51.0539 14.8781 48.7174C14.5318 48.5216 14.2877 48.526 13.9443 48.7218C9.79543 51.0758 5.63635 53.4137 1.47873 55.7531C0.772882 56.1505 0.498143 56.0906 -0.00164795 55.4564V54.91L-0.000186572 54.907ZM41.9443 15.5076C41.9077 14.9596 41.9019 14.3226 41.8142 13.6884C40.7576 6.04347 33.6773 0.68968 26.043 1.77242C16.2445 3.16201 10.8885 14.2057 16.0077 22.6586C19.6393 28.6553 23.4637 34.5352 27.2077 40.4647C27.6783 41.2113 28.3242 41.2128 28.7933 40.469C32.5272 34.5556 36.2712 28.648 39.9758 22.7171C41.3276 20.5516 41.9384 18.1494 41.9443 15.5076ZM2.43301 53.2895C2.60399 53.2164 2.68729 53.1901 2.76036 53.1492C6.29835 51.1562 9.83342 49.1587 13.3758 47.1744C13.6549 47.0181 13.7295 46.8004 13.7879 46.5227C14.2833 44.1717 14.7846 41.8221 15.2931 39.474C15.4305 38.8398 15.8061 38.5724 16.319 38.6981C16.7998 38.815 17.0088 39.2197 16.8816 39.8173C16.4155 42.0252 15.9566 44.236 15.4714 46.4394C15.3706 46.8953 15.3969 47.1584 15.8762 47.4243C19.4449 49.3969 22.9902 51.4133 26.5457 53.4122C26.7284 53.5145 26.8906 53.6826 27.1332 53.6621C27.1478 53.6022 27.1712 53.5496 27.1712 53.497C27.1741 49.9434 27.1756 46.3883 27.1785 42.8347C27.1785 42.6374 27.1347 42.4986 26.9286 42.4051C26.3938 42.164 26.0489 41.7227 25.742 41.2347C23.5894 37.8111 21.4309 34.3934 19.271 30.9757C19.1716 30.8179 19.1059 30.625 18.8794 30.5008C18.8472 30.6294 18.8238 30.7112 18.8063 30.7945C18.4219 32.5918 18.042 34.3905 17.6518 36.1863C17.5042 36.8643 17.1403 37.1711 16.6361 37.0689C16.1261 36.9651 15.9142 36.5326 16.0545 35.8634C16.2635 34.8654 16.4754 33.8689 16.6858 32.8709C16.8904 31.8977 17.0935 30.926 17.3084 29.9003C17.1637 29.9529 17.0906 29.9675 17.0292 30.0026C14.6647 31.3337 12.3046 32.6707 9.93572 33.9931C9.68144 34.1348 9.5996 34.354 9.51046 34.5921C7.29501 40.4267 5.0781 46.2597 2.86265 52.0942C2.72382 52.461 2.59376 52.8336 2.43008 53.288L2.43301 53.2895ZM28.9073 53.7118C29.0885 53.6183 29.2332 53.5481 29.3735 53.4692C32.9743 51.4411 36.5708 49.4027 40.1833 47.3936C40.5852 47.17 40.6495 46.9523 40.5604 46.5388C39.5301 41.752 38.5203 36.9622 37.4929 32.1753C37.3745 31.6259 37.319 31.0546 37.0647 30.4658C36.9215 30.6835 36.8207 30.8325 36.7242 30.9845C34.576 34.389 32.4278 37.7921 30.2825 41.1982C30.0077 41.6336 29.7345 42.0851 29.2522 42.2984C28.8796 42.4621 28.8167 42.7032 28.8182 43.0656C28.8284 46.419 28.824 49.7739 28.8255 53.1273C28.8255 53.3056 28.789 53.4911 28.9073 53.7132V53.7118ZM53.5535 53.2866C53.476 53.0411 53.4322 52.8701 53.3693 52.705C51.072 46.6499 48.7718 40.5962 46.4804 34.5395C46.3693 34.2473 46.1983 34.0603 45.928 33.9098C43.6716 32.6488 41.4226 31.3746 39.1677 30.1107C39.0405 30.0391 38.9236 29.8974 38.7263 29.9616C38.7307 30.0405 38.7263 30.1136 38.7409 30.1823C39.9057 35.6647 41.0733 41.1456 42.2307 46.6294C42.2965 46.9377 42.4762 47.0824 42.7247 47.2226C46.1691 49.1573 49.6092 51.0977 53.0522 53.0352C53.1896 53.1127 53.3328 53.177 53.552 53.2851L53.5535 53.2866Z" fill="#333941"/>
<path d="M18.9833 15.5572C19.0052 10.5614 23.0605 6.5431 28.0585 6.56355C33.0111 6.58401 37.0474 10.6578 37.0226 15.6141C36.9977 20.6114 32.9424 24.6311 27.9474 24.6092C22.9948 24.5888 18.9614 20.515 18.9833 15.5572ZM35.3829 15.5835C35.38 11.5155 32.0773 8.20739 28.0161 8.20301C23.9491 8.19862 20.6464 11.4863 20.6244 15.5586C20.604 19.6383 23.9315 22.9727 28.0175 22.9683C32.0773 22.9625 35.3843 19.647 35.3814 15.5835H35.3829Z" fill="#A02218"/>
<path d="M22.2699 15.5132C22.3328 12.3015 24.9326 9.78825 28.1301 9.8467C31.2574 9.90369 33.7988 12.5382 33.7359 15.6578C33.6716 18.8725 31.0733 21.3857 27.8758 21.3243C24.7484 21.2659 22.2086 18.6314 22.2699 15.5132ZM32.0977 15.5702C32.0875 13.3039 30.2505 11.4803 27.9883 11.4862C25.7305 11.492 23.8979 13.3419 23.9096 15.6009C23.9213 17.8642 25.7597 19.6936 28.019 19.6863C30.2768 19.679 32.1094 17.8306 32.0977 15.5702Z" fill="#A02218"/>
</g>
<defs>
<clipPath id="clip0_153_897">
<rect width="56" height="56" fill="white"/>
</clipPath>
</defs>
</svg>
