<svg width="188" height="37" viewBox="0 0 188 37" fill="none" xmlns="http://www.w3.org/2000/svg">
<g clip-path="url(#clip0_1_487)">
<mask id="mask0_1_487" style="mask-type:luminance" maskUnits="userSpaceOnUse" x="0" y="0" width="188" height="37">
<path d="M188 0.625H0V36.625H188V0.625Z" fill="white"/>
</mask>
<g mask="url(#mask0_1_487)">
<path d="M121.821 0.633591H97.8812C96.7923 0.633591 95.9071 1.51514 95.9071 2.5998V16.379C95.9071 17.4664 96.7923 18.35 97.8812 18.35H121.821C122.912 18.35 123.795 17.4664 123.795 16.379V2.5998C123.795 1.51514 122.912 0.633591 121.821 0.633591ZM101.213 14.6207V4.36016C101.213 4.31023 101.252 4.27125 101.301 4.27125H118.403C118.453 4.27125 118.493 4.31023 118.493 4.36016V14.6207C118.493 14.6706 118.453 14.7123 118.403 14.7123H101.301C101.252 14.7123 101.213 14.6706 101.213 14.6207Z" fill="white"/>
<path d="M27.0917 0.633591H22.1456C22.0482 0.633591 21.9652 0.712923 21.9652 0.812089V14.6207C21.9652 14.6706 21.9295 14.7123 21.8773 14.7123H5.59389C5.54654 14.7123 5.50468 14.6706 5.50468 14.6207V11.695C5.50468 11.5986 5.42371 11.5179 5.32559 11.5179H0.380161C0.280663 11.5179 0.200378 11.5986 0.200378 11.695V16.379C0.200378 17.4664 1.0842 18.35 2.17457 18.35H25.2966C26.3856 18.35 27.2708 17.4664 27.2708 16.379V0.812089C27.2708 0.712923 27.1912 0.633591 27.0917 0.633591Z" fill="white"/>
<path d="M91.0028 0.633591H63.815C63.7169 0.633591 63.6359 0.712923 63.6359 0.812089V4.09275C63.6359 4.19055 63.7169 4.27125 63.815 4.27125H74.6665C74.718 4.27125 74.7564 4.31023 74.7564 4.36016V18.1715C74.7564 18.2679 74.8367 18.35 74.9376 18.35H79.8796C79.9798 18.35 80.0621 18.2679 80.0621 18.1715V4.36016C80.0621 4.31023 80.0985 4.27125 80.1499 4.27125H91.0028C91.0996 4.27125 91.1819 4.19055 91.1819 4.09275V0.812089C91.1819 0.712923 91.0996 0.633591 91.0028 0.633591Z" fill="white"/>
<path d="M155.28 0.633591H150.337C150.238 0.633591 150.156 0.712923 150.156 0.812089V14.6207C150.156 14.6706 150.118 14.7123 150.069 14.7123H133.916C133.865 14.7123 133.826 14.6706 133.826 14.6207V0.812089C133.826 0.712923 133.747 0.633591 133.646 0.633591H128.701C128.604 0.633591 128.523 0.712923 128.523 0.812089V16.379C128.523 17.4664 129.406 18.35 130.496 18.35H153.487C154.577 18.35 155.462 17.4664 155.462 16.379V0.812089C155.462 0.712923 155.38 0.633591 155.28 0.633591Z" fill="white"/>
<path d="M187.735 18.0252L177.639 11.1246H185.503C186.592 11.1246 187.475 10.2444 187.475 9.16045V2.5998C187.475 1.51309 186.592 0.633591 185.503 0.633591H160.368C160.268 0.633591 160.189 0.712923 160.189 0.812089V18.1715C160.189 18.2679 160.268 18.35 160.368 18.35H165.312C165.411 18.35 165.492 18.2679 165.492 18.1715V8.13802L180.326 18.272C180.404 18.3233 180.492 18.35 180.582 18.35H187.634C187.81 18.35 187.879 18.1223 187.735 18.0252ZM165.581 4.27125H182.084C182.133 4.27125 182.174 4.31023 182.174 4.36016V7.40009C182.174 7.45002 182.133 7.489 182.084 7.489H165.581C165.532 7.489 165.492 7.45002 165.492 7.40009V4.36016C165.492 4.31023 165.532 4.27125 165.581 4.27125Z" fill="white"/>
<path d="M58.7297 4.27125C58.8292 4.27125 58.9095 4.19055 58.9095 4.09275V0.812089C58.9095 0.712923 58.8292 0.633591 58.7297 0.633591H33.9731C32.8814 0.633591 31.9976 1.51309 31.9976 2.5998V16.379C31.9976 17.4664 32.8814 18.35 33.9731 18.35H58.7297C58.8292 18.35 58.9095 18.2679 58.9095 18.1715V14.8922C58.9095 14.7917 58.8292 14.7123 58.7297 14.7123H37.3924C37.3396 14.7123 37.2991 14.6706 37.2991 14.6207V11.3995C37.2991 11.3496 37.3396 11.3079 37.3924 11.3079H57.3635C57.4644 11.3079 57.544 11.2299 57.544 11.1294V7.85283C57.544 7.7523 57.4644 7.67297 57.3635 7.67297H37.3924C37.3396 7.67297 37.2991 7.63125 37.2991 7.58406V4.36016C37.2991 4.31023 37.3396 4.27125 37.3924 4.27125H58.7297Z" fill="white"/>
<path d="M28.915 26.3386C29.4084 26.3386 29.8626 26.4302 30.2785 26.6135C30.6943 26.7961 31.0566 27.0423 31.3661 27.3501C31.6756 27.6592 31.9219 28.0224 32.1058 28.4416C32.289 28.8608 32.3961 29.3019 32.4249 29.7643C32.4345 29.9667 32.442 30.2149 32.4468 30.509C32.451 30.8031 32.4537 31.104 32.4537 31.4124C32.4537 31.7209 32.451 32.0198 32.4468 32.3084C32.442 32.5977 32.4345 32.8432 32.4249 33.0456C32.3961 33.5086 32.289 33.947 32.1058 34.3614C31.9219 34.7759 31.6756 35.137 31.3661 35.4454C31.0566 35.7538 30.6943 35.9994 30.2785 36.1826C29.8626 36.3659 29.4084 36.4569 28.915 36.4569H22.5738C22.4963 36.4569 22.4579 36.4138 22.4579 36.327V26.4685C22.4579 26.3824 22.4963 26.3386 22.5738 26.3386H28.915ZM28.7119 34.7225C28.9438 34.7225 29.1469 34.6699 29.3212 34.5632C29.4948 34.4579 29.6451 34.3204 29.7707 34.1515C29.8963 33.9832 29.993 33.7952 30.0609 33.5879C30.1282 33.3807 30.1714 33.1762 30.1913 32.9738C30.2009 32.7809 30.2078 32.547 30.2133 32.2728C30.2181 31.9979 30.2201 31.7113 30.2201 31.4124C30.2201 31.1136 30.2181 30.8243 30.2133 30.5453C30.2078 30.2656 30.2009 30.0248 30.1913 29.8224C30.1817 29.62 30.1426 29.4127 30.0753 29.2007C30.0074 28.9887 29.9107 28.8013 29.7851 28.6372C29.6595 28.473 29.5072 28.3383 29.3281 28.2323C29.1497 28.1263 28.9438 28.0737 28.7119 28.0737H24.6914V34.7225H28.7119Z" fill="white"/>
<path d="M39.9635 29.2295C40.0506 29.2295 40.0939 29.2733 40.0939 29.3601V30.6753C40.0939 30.7621 40.0506 30.8052 39.9635 30.8052H37.0629C36.7727 30.8052 36.538 30.8298 36.3596 30.8777C36.1805 30.9263 36.0426 30.9933 35.9458 31.0801C35.849 31.167 35.7839 31.273 35.7502 31.3981C35.7159 31.5233 35.6995 31.6628 35.6995 31.8174V36.327C35.6995 36.4139 35.6555 36.457 35.5691 36.457H33.8426C33.7561 36.457 33.7122 36.4139 33.7122 36.327V31.6149C33.7122 30.8244 33.9709 30.2294 34.4883 29.83C35.0057 29.4299 35.8154 29.2295 36.9175 29.2295H39.9635Z" fill="white"/>
<path d="M43.2101 26.3386C43.2966 26.3386 43.3406 26.3769 43.3406 26.4542V28.1024C43.3406 28.1885 43.2966 28.2323 43.2101 28.2323H41.4827C41.3962 28.2323 41.3522 28.1885 41.3522 28.1024V26.4542C41.3522 26.3769 41.3962 26.3386 41.4827 26.3386H43.2101ZM43.2101 29.2294C43.2966 29.2294 43.3406 29.2684 43.3406 29.345V36.327C43.3406 36.4138 43.2966 36.4569 43.2101 36.4569H41.4827C41.3962 36.4569 41.3522 36.4138 41.3522 36.327V29.345C41.3522 29.2684 41.3962 29.2294 41.4827 29.2294H43.2101Z" fill="white"/>
<path d="M53.4012 29.1864C53.546 29.1864 53.5845 29.2493 53.5173 29.3745C53.0624 30.4051 52.6519 31.3352 52.2841 32.1641C52.129 32.5204 51.9746 32.8726 51.8196 33.2194C51.6652 33.5661 51.5253 33.8793 51.3997 34.159C51.2734 34.4388 51.1697 34.6747 51.0874 34.8676C51.005 35.0604 50.9543 35.176 50.9352 35.2143C50.8 35.5132 50.6544 35.7539 50.5 35.9372C50.3456 36.1198 50.157 36.2504 49.9347 36.327C49.8283 36.3756 49.6951 36.4091 49.5359 36.4282C49.376 36.4481 49.2141 36.4569 49.0501 36.4569C48.8854 36.4569 48.7303 36.4481 48.5855 36.4282C48.4407 36.4091 48.3153 36.3756 48.2089 36.327C47.9859 36.2402 47.795 36.1082 47.6358 35.9297C47.4759 35.7512 47.3284 35.5132 47.1932 35.2143C47.174 35.176 47.1213 35.0604 47.0341 34.8676C46.947 34.6747 46.8427 34.4388 46.7219 34.159C46.6011 33.8793 46.4632 33.5661 46.3088 33.2194C46.1537 32.8726 45.9992 32.5204 45.8442 32.1641C45.477 31.3352 45.066 30.4051 44.6117 29.3745C44.5733 29.2493 44.6165 29.1864 44.7421 29.1864H46.3519C46.5454 29.1864 46.6759 29.2733 46.7439 29.4463L48.919 34.3464C48.9286 34.3854 48.9533 34.4141 48.9917 34.434C49.011 34.4429 49.0357 34.4483 49.0645 34.4483C49.1029 34.4483 49.127 34.4429 49.1366 34.434C49.1751 34.4244 49.2046 34.395 49.2238 34.3464L51.3845 29.4463C51.4621 29.2733 51.5972 29.1864 51.7907 29.1864H53.4012Z" fill="white"/>
<path d="M60.7251 29.2295C61.0833 29.2295 61.4168 29.2972 61.7263 29.4319C62.0357 29.5673 62.3013 29.7499 62.5236 29.9811C62.7466 30.2129 62.923 30.4804 63.0534 30.7833C63.1838 31.087 63.2489 31.4029 63.2489 31.7305V32.9595C63.2489 33.1229 63.1741 33.2871 63.0246 33.4505C62.8743 33.6147 62.6883 33.696 62.466 33.696H56.8241V33.971C56.8241 34.1926 56.8968 34.3998 57.0416 34.5926C57.1864 34.7855 57.3847 34.8819 57.6365 34.8819H62.7267C62.8139 34.8819 62.8578 34.9202 62.8578 34.9975V36.327C62.8578 36.4139 62.8139 36.457 62.7267 36.457H57.3751C57.0073 36.457 56.6717 36.3804 56.3671 36.2258C56.0624 36.0719 55.8016 35.8695 55.5841 35.6185C55.3666 35.3682 55.1923 35.0864 55.0619 34.7732C54.9315 34.4606 54.8561 34.1399 54.8368 33.8123C54.8272 33.6776 54.8204 33.5251 54.8149 33.3568C54.8101 33.1879 54.808 33.0169 54.808 32.8432C54.808 32.6702 54.8101 32.502 54.8149 32.3378C54.8204 32.1737 54.8272 32.0198 54.8368 31.8748C54.8465 31.5472 54.9164 31.2244 55.0475 30.9064C55.1779 30.5884 55.3542 30.3046 55.5766 30.0536C55.7989 29.8033 56.0624 29.6036 56.3671 29.4538C56.6717 29.3047 57.0073 29.2295 57.3751 29.2295H60.7251ZM61.0298 32.1203C61.0881 32.1203 61.1409 32.0971 61.1897 32.0485C61.2377 32.0007 61.2624 31.9425 61.2624 31.8748V31.6293C61.2624 31.3209 61.1945 31.1068 61.0593 30.9858C60.9234 30.8654 60.7306 30.8052 60.4788 30.8052H57.6365C57.3847 30.8052 57.1864 30.8845 57.0416 31.0439C56.8968 31.2026 56.8241 31.3981 56.8241 31.6293V32.1203H61.0298Z" fill="white"/>
<path d="M81.711 26.3386C81.7687 26.3386 81.8071 26.3625 81.827 26.4111C81.8462 26.459 81.8366 26.5027 81.7982 26.541L76.3155 32.5395V36.327C76.3155 36.4138 76.2722 36.4569 76.1851 36.4569H74.2123C74.1258 36.4569 74.0819 36.4138 74.0819 36.327V32.4964L68.6143 26.541C68.5751 26.5027 68.5683 26.459 68.5923 26.4111C68.6163 26.3625 68.6527 26.3386 68.7007 26.3386H70.9055C71.1086 26.3386 71.2685 26.4063 71.3838 26.541L74.8937 30.3428C74.9815 30.4297 75.0872 30.4728 75.2134 30.4728C75.3383 30.4728 75.4454 30.4297 75.5318 30.3428L79.0273 26.541C79.144 26.4063 79.3032 26.3386 79.5063 26.3386H81.711Z" fill="white"/>
<path d="M86.3937 29.1576C86.8871 29.1576 87.3681 29.1672 87.8368 29.1864C88.3054 29.2062 88.724 29.278 89.0911 29.4032C89.4589 29.5283 89.7561 29.702 89.9832 29.9236C90.2103 30.1452 90.3874 30.4146 90.5129 30.7333H90.4985C90.6337 31.0418 90.7236 31.3742 90.7668 31.7305C90.8101 32.0868 90.832 32.4629 90.832 32.8582C90.832 33.2337 90.8101 33.6003 90.7668 33.9566C90.7236 34.3136 90.6337 34.6453 90.4985 34.9537H90.5129C90.3874 35.2813 90.2103 35.5542 89.9832 35.771C89.7561 35.9877 89.4589 36.1635 89.0911 36.2982C88.7528 36.4042 88.3466 36.4692 87.8731 36.4932C87.399 36.5171 86.9063 36.5294 86.3937 36.5294C85.8907 36.5294 85.4028 36.5171 84.9287 36.4932C84.4552 36.4692 84.049 36.4042 83.7107 36.2982C83.3429 36.1731 83.0437 35.9973 82.8118 35.771C82.5798 35.5446 82.4007 35.2717 82.2745 34.9537C82.1489 34.6555 82.0624 34.3279 82.0137 33.9709C81.965 33.6146 81.9417 33.2433 81.9417 32.8582C81.9417 32.4534 81.965 32.0724 82.0137 31.7161C82.0624 31.3598 82.1489 31.0322 82.2745 30.7333C82.4007 30.4249 82.5798 30.1548 82.8118 29.9236C83.0437 29.6925 83.3429 29.5187 83.7107 29.4032C84.0682 29.2972 84.4868 29.2295 84.965 29.2007C85.444 29.172 85.9202 29.1576 86.3937 29.1576ZM86.3937 34.9537C86.732 34.9537 87.0559 34.9489 87.3654 34.9393C87.6748 34.9298 87.926 34.8915 88.1195 34.8237C88.3034 34.7567 88.4386 34.6651 88.5257 34.5488C88.6129 34.4339 88.6808 34.2937 88.7288 34.1296C88.7776 33.9566 88.8084 33.7637 88.8228 33.5517C88.8379 33.3397 88.8448 33.1085 88.8448 32.8582C88.8448 32.5977 88.8379 32.359 88.8228 32.1422C88.8084 31.9254 88.7776 31.7305 88.7288 31.5568C88.6808 31.3933 88.6129 31.249 88.5257 31.1232C88.4386 30.998 88.3034 30.9112 88.1195 30.8633C87.9068 30.8052 87.6488 30.7689 87.3441 30.7545C87.0394 30.7402 86.7224 30.7333 86.3937 30.7333C86.0554 30.7333 85.7363 30.7381 85.4365 30.7477C85.1366 30.7573 84.8806 30.7956 84.6679 30.8633C84.4936 30.9112 84.3605 30.998 84.2692 31.1232C84.1773 31.249 84.1066 31.3933 84.0586 31.5568C84.0098 31.7496 83.9762 31.9521 83.957 32.1641C83.9378 32.3761 83.9282 32.6072 83.9282 32.8582C83.9282 33.0894 83.9378 33.311 83.957 33.523C83.9762 33.735 84.0098 33.9374 84.0586 34.1296C84.1066 34.2937 84.1793 34.4339 84.2761 34.5488C84.3728 34.6651 84.5032 34.7567 84.6679 34.8237C84.8614 34.8915 85.1126 34.9298 85.422 34.9393C85.7315 34.9489 86.0554 34.9537 86.3937 34.9537Z" fill="white"/>
<path d="M100.024 29.2295C100.111 29.2295 100.155 29.2733 100.155 29.3601V32.7714C100.155 33.1763 100.133 33.5641 100.089 33.9347C100.046 34.3061 99.9659 34.6412 99.85 34.9394C99.7244 35.2574 99.5474 35.5303 99.3202 35.7566C99.0931 35.9823 98.7912 36.154 98.4138 36.2696C98.0755 36.3756 97.7372 36.4453 97.3989 36.4788C97.0606 36.513 96.6399 36.5294 96.137 36.5294C95.634 36.5294 95.2113 36.513 94.8682 36.4788C94.5244 36.4453 94.1888 36.3756 93.8602 36.2696C93.4923 36.154 93.1925 35.9803 92.9605 35.7491C92.7286 35.518 92.5495 35.2478 92.4239 34.9394C92.2984 34.6309 92.2112 34.2917 92.1632 33.9204C92.1145 33.5497 92.0905 33.1667 92.0905 32.7714V29.3601C92.0905 29.2733 92.1344 29.2295 92.2208 29.2295H93.9473C94.0338 29.2295 94.0777 29.2733 94.0777 29.3594V32.7625C94.0777 33.0026 94.0873 33.2358 94.1065 33.4615C94.1257 33.6878 94.1593 33.8971 94.2081 34.0886C94.2568 34.2521 94.3288 34.3916 94.4256 34.5072C94.5223 34.622 94.6527 34.7137 94.8174 34.7807C95.0205 34.858 95.2085 34.9059 95.3828 34.925C95.5571 34.9442 95.8083 34.9537 96.137 34.9537C96.4656 34.9537 96.7175 34.9442 96.8911 34.925C97.0654 34.9059 97.2541 34.858 97.4572 34.7807C97.6308 34.7137 97.7612 34.622 97.8483 34.5072C97.9355 34.3916 98.0027 34.2521 98.0515 34.0886C98.0995 33.9156 98.131 33.7145 98.1461 33.4834C98.1606 33.2522 98.1674 33.0121 98.1674 32.7625V29.3594C98.1674 29.2733 98.2106 29.2295 98.2985 29.2295H100.024Z" fill="white"/>
<path d="M107.664 29.2295C107.752 29.2295 107.795 29.2733 107.795 29.3601V30.6753C107.795 30.7621 107.752 30.8052 107.664 30.8052H104.764C104.474 30.8052 104.239 30.8298 104.061 30.8777C103.881 30.9263 103.743 30.9933 103.647 31.0801C103.55 31.167 103.485 31.273 103.451 31.3981C103.417 31.5233 103.4 31.6628 103.4 31.8174V36.327C103.4 36.4139 103.356 36.457 103.27 36.457H101.544C101.457 36.457 101.413 36.4139 101.413 36.327V31.6149C101.413 30.8244 101.672 30.2294 102.189 29.83C102.707 29.4299 103.516 29.2295 104.618 29.2295H107.664Z" fill="white"/>
<path d="M130.652 29.2295C130.739 29.2295 130.782 29.2733 130.782 29.3601V32.7714C130.782 33.1763 130.76 33.5641 130.717 33.9347C130.673 34.3061 130.594 34.6412 130.478 34.9394C130.351 35.2574 130.175 35.5303 129.948 35.7566C129.721 35.9823 129.419 36.154 129.042 36.2696C128.703 36.3756 128.365 36.4453 128.027 36.4788C127.688 36.513 127.267 36.5294 126.765 36.5294C126.262 36.5294 125.838 36.513 125.495 36.4788C125.152 36.4453 124.816 36.3756 124.488 36.2696C124.12 36.154 123.82 35.9803 123.588 35.7491C123.356 35.518 123.177 35.2478 123.052 34.9394C122.926 34.6309 122.839 34.2917 122.791 33.9204C122.742 33.5497 122.718 33.1667 122.718 32.7714V29.3601C122.718 29.2733 122.761 29.2295 122.849 29.2295H124.574C124.662 29.2295 124.705 29.2733 124.705 29.3594V32.7625C124.705 33.0026 124.715 33.2358 124.734 33.4615C124.753 33.6878 124.787 33.8971 124.835 34.0886C124.884 34.2521 124.957 34.3916 125.053 34.5072C125.15 34.622 125.28 34.7137 125.444 34.7807C125.648 34.858 125.836 34.9059 126.011 34.925C126.184 34.9442 126.436 34.9537 126.765 34.9537C127.093 34.9537 127.345 34.9442 127.519 34.925C127.692 34.9059 127.881 34.858 128.084 34.7807C128.259 34.7137 128.389 34.622 128.476 34.5072C128.563 34.3916 128.631 34.2521 128.679 34.0886C128.727 33.9156 128.759 33.7145 128.773 33.4834C128.788 33.2522 128.795 33.0121 128.795 32.7625V29.3594C128.795 29.2733 128.838 29.2295 128.926 29.2295H130.652Z" fill="white"/>
<path d="M135.289 27.3214C135.376 27.3214 135.42 27.3652 135.42 27.452V29.2295H138.669C138.756 29.2295 138.799 29.2732 138.799 29.3601V30.6752C138.799 30.7621 138.756 30.8052 138.669 30.8052H135.42V33.9279C135.42 34.1494 135.49 34.3635 135.63 34.5707C135.77 34.7779 135.967 34.8819 136.218 34.8819H138.48C138.567 34.8819 138.611 34.925 138.611 35.0118V36.327C138.611 36.4138 138.567 36.4569 138.48 36.4569H135.971C135.604 36.4569 135.265 36.3872 134.956 36.2476C134.646 36.1081 134.378 35.9228 134.151 35.6909C133.924 35.4598 133.747 35.1924 133.622 34.8887C133.496 34.5851 133.433 34.265 133.433 33.9279V30.8052H132.171C132.085 30.8052 132.041 30.7621 132.041 30.6752V29.3601C132.041 29.2732 132.085 29.2295 132.171 29.2295H133.433V27.452C133.433 27.3652 133.476 27.3214 133.564 27.3214H135.289Z" fill="white"/>
<path d="M147.992 29.2295C148.079 29.2295 148.122 29.2733 148.122 29.3601V32.7714C148.122 33.1763 148.101 33.5641 148.057 33.9347C148.014 34.3061 147.933 34.6412 147.817 34.9394C147.692 35.2574 147.515 35.5303 147.288 35.7566C147.061 35.9823 146.758 36.154 146.382 36.2696C146.043 36.3756 145.704 36.4453 145.366 36.4788C145.028 36.513 144.607 36.5294 144.104 36.5294C143.602 36.5294 143.179 36.513 142.835 36.4788C142.492 36.4453 142.156 36.3756 141.827 36.2696C141.46 36.154 141.16 35.9803 140.928 35.7491C140.696 35.518 140.517 35.2478 140.392 34.9394C140.266 34.6309 140.179 34.2917 140.13 33.9204C140.082 33.5497 140.058 33.1667 140.058 32.7714V29.3601C140.058 29.2733 140.102 29.2295 140.189 29.2295H141.915C142.002 29.2295 142.045 29.2733 142.045 29.3594V32.7625C142.045 33.0026 142.055 33.2358 142.074 33.4615C142.093 33.6878 142.127 33.8971 142.175 34.0886C142.224 34.2521 142.296 34.3916 142.393 34.5072C142.49 34.622 142.62 34.7137 142.785 34.7807C142.988 34.858 143.176 34.9059 143.35 34.925C143.524 34.9442 143.776 34.9537 144.104 34.9537C144.433 34.9537 144.685 34.9442 144.858 34.925C145.033 34.9059 145.221 34.858 145.424 34.7807C145.598 34.7137 145.729 34.622 145.816 34.5072C145.903 34.3916 145.971 34.2521 146.019 34.0886C146.067 33.9156 146.099 33.7145 146.113 33.4834C146.128 33.2522 146.135 33.0121 146.135 32.7625V29.3594C146.135 29.2733 146.179 29.2295 146.266 29.2295H147.992Z" fill="white"/>
<path d="M155.632 29.2295C155.719 29.2295 155.762 29.2733 155.762 29.3601V30.6753C155.762 30.7621 155.719 30.8052 155.632 30.8052H152.731C152.441 30.8052 152.207 30.8298 152.028 30.8777C151.849 30.9263 151.711 30.9933 151.614 31.0801C151.517 31.167 151.452 31.273 151.418 31.3981C151.384 31.5233 151.368 31.6628 151.368 31.8174V36.327C151.368 36.4139 151.324 36.457 151.237 36.457H149.511C149.424 36.457 149.38 36.4139 149.38 36.327V31.6149C149.38 30.8244 149.639 30.2294 150.156 29.83C150.674 29.4299 151.484 29.2295 152.586 29.2295H155.632Z" fill="white"/>
<path d="M162.938 29.2295C163.296 29.2295 163.63 29.2972 163.939 29.4319C164.249 29.5673 164.514 29.7499 164.737 29.9811C164.959 30.2129 165.135 30.4804 165.267 30.7833C165.397 31.087 165.462 31.4029 165.462 31.7305V32.9595C165.462 33.1229 165.387 33.2871 165.238 33.4505C165.087 33.6147 164.901 33.696 164.678 33.696H159.037V33.971C159.037 34.1926 159.109 34.3998 159.255 34.5926C159.4 34.7855 159.598 34.8819 159.849 34.8819H164.94C165.027 34.8819 165.07 34.9202 165.07 34.9975V36.327C165.07 36.4139 165.027 36.457 164.94 36.457H159.588C159.22 36.457 158.885 36.3804 158.58 36.2258C158.276 36.0719 158.015 35.8695 157.797 35.6185C157.58 35.3682 157.405 35.0864 157.275 34.7732C157.144 34.4606 157.069 34.1399 157.05 33.8123C157.04 33.6776 157.033 33.5251 157.028 33.3568C157.023 33.1879 157.021 33.0169 157.021 32.8432C157.021 32.6702 157.023 32.502 157.028 32.3378C157.033 32.1737 157.04 32.0198 157.05 31.8748C157.06 31.5472 157.13 31.2244 157.26 30.9064C157.391 30.5884 157.567 30.3046 157.79 30.0536C158.012 29.8033 158.276 29.6036 158.58 29.4538C158.885 29.3047 159.22 29.2295 159.588 29.2295H162.938ZM163.243 32.1203C163.301 32.1203 163.354 32.0971 163.403 32.0485C163.451 32.0007 163.475 31.9425 163.475 31.8748V31.6293C163.475 31.3209 163.408 31.1068 163.272 30.9858C163.137 30.8654 162.943 30.8052 162.692 30.8052H159.849C159.598 30.8052 159.4 30.8845 159.255 31.0439C159.109 31.2026 159.037 31.3981 159.037 31.6293V32.1203H163.243Z" fill="white"/>
<path d="M17.7025 32.7981H0.200378V32.1812H17.7025V32.7981Z" fill="white"/>
<path d="M121.329 26.3386L113.507 26.3243L113.5 36.2983C113.5 36.4043 113.539 36.4569 113.616 36.4569H115.604C115.691 36.4569 115.734 36.4043 115.734 36.2983V32.2653H121.053C121.179 32.2653 121.242 32.2222 121.242 32.1354V30.6465C121.242 30.5692 121.179 30.5309 121.053 30.5309L115.709 30.5467V28.0648L121.329 28.0737C121.416 28.0737 121.46 28.0299 121.46 27.9431V26.4686C121.46 26.3824 121.416 26.3386 121.329 26.3386Z" fill="white"/>
<path d="M187.719 32.7981H170.217V32.1812H187.719V32.7981Z" fill="white"/>
</g>
</g>
<defs>
<clipPath id="clip0_1_487">
<rect width="188" height="36" fill="white" transform="translate(0 0.625)"/>
</clipPath>
</defs>
</svg>
