<svg width="24" height="24" viewBox="0 0 24 24" fill="none" xmlns="http://www.w3.org/2000/svg">
<g clip-path="url(#clip0_138_385)">
<path d="M12.8181 0C13.1163 0.110941 13.3107 0.331807 13.4817 0.593384C14.9504 2.83257 16.5026 5.01679 17.901 7.30178C18.9036 8.93944 19.8644 10.6015 20.5728 12.3949C21.0654 13.6438 21.3891 14.916 21.2191 16.2779C20.9158 18.7074 19.8054 20.6789 17.8827 22.1913C16.6186 23.1858 15.1764 23.771 13.5825 23.9461C11.7199 24.1496 9.96415 23.7812 8.33361 22.8468C6.68679 21.9033 5.46949 20.5629 4.71733 18.8254C3.92038 16.9852 3.73921 15.1013 4.41504 13.1684C4.91377 11.7405 5.57534 10.3908 6.31733 9.07888C7.75957 6.52723 9.41148 4.10891 11.0644 1.69262C11.2975 1.35064 11.5285 1.00662 11.7423 0.652417C11.9163 0.364377 12.1239 0.126209 12.4425 0H12.8181V0ZM12.643 22.3094C13.8603 22.2941 15.0094 22.0153 16.069 21.4107C17.6303 20.5191 18.6766 19.1969 19.2334 17.4992C19.6232 16.3104 19.7046 15.1043 19.3168 13.886C18.9382 12.6972 18.4049 11.5807 17.8074 10.4926C16.2868 7.72519 14.4863 5.13384 12.7397 2.50891C12.6186 2.32672 12.5779 2.43053 12.5087 2.53333C11.2761 4.37557 10.0161 6.20051 8.85168 8.08753C7.91835 9.60204 7.02369 11.1389 6.33463 12.7868C5.80944 14.0427 5.54176 15.317 5.80537 16.6891C6.42929 19.9338 9.32293 22.3288 12.643 22.3094Z" fill="#EA3424"/>
<path d="M18.4621 15.8137C18.2758 17.8371 17.3313 19.3934 15.5847 20.4499C15.1664 20.7023 14.7186 20.6086 14.4387 20.2371C14.1781 19.8921 14.2056 19.4341 14.5099 19.1277C14.57 19.0677 14.6392 19.0137 14.7125 18.97C16.0031 18.1995 16.6728 17.0494 16.8071 15.5654C16.8428 15.1735 17.0779 14.8997 17.4341 14.8061C17.7618 14.7196 18.114 14.8519 18.3196 15.1369C18.4672 15.3415 18.4804 15.5705 18.4631 15.8137H18.4621Z" fill="#EA3424"/>
</g>
<defs>
<clipPath id="clip0_138_385">
<rect width="24" height="24" fill="white"/>
</clipPath>
</defs>
</svg>
