<svg width="24" height="24" viewBox="0 0 24 24" fill="none" xmlns="http://www.w3.org/2000/svg">
<g clip-path="url(#clip0_138_437)">
<path d="M12.015 23.9956C9.75731 23.9956 7.49961 23.9892 5.2419 23.9994C4.44693 24.0032 3.84773 23.7092 3.42915 23.0524C3.10615 22.5451 2.74492 22.0614 2.42389 21.5529C1.56761 20.1973 2.05014 18.4159 3.48584 17.6312C3.64141 17.5465 3.70469 17.4485 3.72842 17.2875C4.02769 15.2452 4.33091 13.2041 4.6348 11.1625C4.72906 10.5267 4.81805 9.88959 4.92615 9.2557C5.13446 8.03883 6.22804 7.12236 7.50092 7.08927C7.87138 7.07972 8.24251 7.07972 8.61297 7.08608C8.76524 7.08863 8.83511 7.05681 8.8305 6.8907C8.81929 6.46238 8.81863 6.03278 8.83116 5.60446C8.83577 5.4549 8.76853 5.42181 8.63933 5.3938C7.17265 5.07749 6.47062 3.64106 7.14694 2.34464C7.34272 1.96914 7.53322 1.59046 7.73823 1.22005C8.17659 0.428329 8.87137 0.0178272 9.79818 0.00955355C11.2649 -0.00317517 12.7315 -0.00253874 14.1982 0.00955355C15.125 0.0171908 15.8211 0.425146 16.2595 1.21751C16.4803 1.61592 16.6899 2.02069 16.8949 2.42737C17.5133 3.65251 16.7717 5.1125 15.3874 5.38807C15.216 5.42244 15.162 5.48099 15.1679 5.65029C15.1817 6.05506 15.1824 6.46047 15.1679 6.86461C15.1613 7.04917 15.2285 7.0899 15.4078 7.08863C15.8851 7.08545 16.3669 7.04217 16.8396 7.11854C18.0835 7.32093 18.9378 8.22276 19.1177 9.45936C19.4862 11.9886 19.8745 14.5152 20.2363 17.045C20.2825 17.3683 20.3952 17.5631 20.6925 17.747C22.0069 18.561 22.3879 20.2788 21.5712 21.5707C21.3016 21.9971 21.0168 22.4153 20.7334 22.8341C20.5534 23.1007 20.3491 23.3496 20.1025 23.564C19.7644 23.8594 19.3748 24.0019 18.912 24.0006C16.6135 23.993 14.3142 23.9975 12.0157 23.9975L12.015 23.9956ZM12.0045 8.29404C10.5879 8.29404 9.17129 8.29404 7.75537 8.29404C7.47192 8.29404 7.19902 8.33286 6.94325 8.45951C6.80351 8.52889 6.74154 8.57216 6.91557 8.69118C7.56684 9.13732 8.10144 9.69611 8.55034 10.33C9.78236 12.07 10.3321 14.0239 10.4633 16.1012C10.5292 17.1469 10.4897 18.1957 10.4883 19.2433C10.4883 19.431 10.5444 19.4839 10.7382 19.4813C11.578 19.4711 12.4184 19.4699 13.2582 19.4819C13.4758 19.4851 13.514 19.41 13.5114 19.2223C13.5015 18.4923 13.5081 17.7623 13.5074 17.0323C13.5074 16.0936 13.5753 15.1605 13.7829 14.2422C14.28 12.0426 15.1857 10.0659 17.1197 8.66381C17.2272 8.58617 17.2226 8.54416 17.1092 8.48433C16.8422 8.34241 16.5548 8.29277 16.2536 8.2934C14.837 8.29468 13.4204 8.2934 12.0045 8.2934V8.29404ZM11.9873 22.7717C14.2694 22.7717 16.5509 22.7691 18.8329 22.7749C19.1184 22.7755 19.3161 22.6788 19.4684 22.4471C19.8033 21.938 20.1592 21.4415 20.4895 20.9298C21.0887 20.0019 20.5106 18.7189 19.4005 18.4948C18.9615 18.4064 18.798 18.4719 18.5495 18.836C18.274 19.2401 18.0156 19.657 17.6767 20.0178C17.2984 20.4201 16.8547 20.6995 16.2648 20.6963C15.713 20.6931 15.1613 20.6924 14.6089 20.6924C12.3848 20.6924 10.1607 20.6867 7.93664 20.695C7.13574 20.6982 6.52336 20.3959 6.08764 19.7499C5.8767 19.4374 5.65587 19.1313 5.43966 18.822C5.19774 18.4764 4.99471 18.4026 4.57811 18.5082C3.39553 18.8086 2.90312 20.0153 3.56099 21.0113C3.87476 21.4861 4.20896 21.9488 4.51812 22.4267C4.67962 22.6762 4.88726 22.7755 5.1918 22.7749C7.45742 22.7672 9.72237 22.771 11.988 22.771L11.9873 22.7717ZM17.8633 9.6592C17.4572 9.9195 17.1402 10.2269 16.8561 10.5636C15.7434 11.8823 15.191 13.4275 14.9181 15.081C14.6854 16.4926 14.7968 17.917 14.7697 19.3362C14.7678 19.4565 14.8205 19.4826 14.9319 19.4807C15.2529 19.4762 15.5779 19.4508 15.895 19.4858C16.4025 19.5424 16.7222 19.312 16.9767 18.9295C17.2034 18.589 17.4328 18.2498 17.6761 17.9208C17.9312 17.5765 18.2871 17.3531 18.7196 17.2996C18.9839 17.2665 18.9852 17.1602 18.9549 16.9591C18.6912 15.2248 18.4361 13.4893 18.1784 11.7543C18.0762 11.0664 17.9721 10.379 17.8639 9.65856L17.8633 9.6592ZM6.15026 9.6592C6.13312 9.71648 6.12323 9.73811 6.11994 9.75975C5.85824 11.51 5.5972 13.2608 5.33683 15.011C5.23597 15.6862 5.1338 16.3609 5.03822 17.0368C5.02569 17.1259 4.96175 17.2551 5.14171 17.2722C5.8233 17.3384 6.24716 17.7477 6.58993 18.2721C6.78703 18.5738 6.9683 18.8869 7.20891 19.1599C7.36118 19.3324 7.53322 19.4781 7.78965 19.4775C8.20955 19.4769 8.63011 19.4724 9.05 19.48C9.19173 19.4826 9.23326 19.4361 9.23062 19.3031C9.20425 18.0188 9.29654 16.7306 9.13174 15.4501C8.92344 13.8304 8.43433 12.3055 7.45412 10.9531C7.09882 10.463 6.68156 10.029 6.1496 9.6592H6.15026ZM12.0005 4.23485C12.9721 4.23485 13.9438 4.23931 14.9154 4.23294C15.5238 4.22912 16.0123 3.66397 15.8093 3.13764C15.599 2.59157 15.361 2.04551 14.9794 1.57964C14.8159 1.38044 14.6069 1.23342 14.3314 1.23278C12.7915 1.2296 11.2517 1.22896 9.71182 1.23533C9.38553 1.2366 9.10538 1.38171 8.94783 1.64965C8.69339 2.08306 8.41851 2.51011 8.24382 2.98235C7.98411 3.68433 8.38884 4.23231 9.15877 4.23422C10.106 4.23612 11.0526 4.23422 11.9999 4.23422L12.0005 4.23485ZM11.9873 7.0829C12.5641 7.0829 13.1409 7.07908 13.7177 7.08545C13.868 7.08736 13.9194 7.04026 13.9168 6.89452C13.9088 6.48211 13.9075 6.06842 13.9168 5.65601C13.9201 5.49945 13.866 5.45108 13.7052 5.45172C12.5681 5.45681 11.431 5.45681 10.2939 5.45172C10.133 5.45108 10.0783 5.49945 10.0823 5.65601C10.0915 6.06079 10.0928 6.4662 10.0823 6.87033C10.0777 7.03772 10.1344 7.08863 10.3071 7.08608C10.8674 7.07718 11.4277 7.0829 11.988 7.0829H11.9873Z" fill="#EA3424"/>
<path d="M11.9905 10.9066C11.7269 10.9066 11.4632 10.9117 11.2002 10.9054C10.8383 10.8965 10.5957 10.6654 10.5779 10.3249C10.5608 9.99209 10.7869 9.71524 11.1468 9.70123C11.7137 9.67896 12.2826 9.67896 12.8495 9.7006C13.2114 9.71396 13.4375 9.987 13.4236 10.3205C13.4084 10.6693 13.1606 10.899 12.7816 10.906C12.5179 10.9111 12.2549 10.9066 11.9912 10.9066H11.9905Z" fill="#EA3424"/>
</g>
<defs>
<clipPath id="clip0_138_437">
<rect width="24" height="24" fill="white"/>
</clipPath>
</defs>
</svg>
