<svg width="24" height="24" viewBox="0 0 24 24" fill="none" xmlns="http://www.w3.org/2000/svg">
<path d="M22.9999 14.4107C22.924 14.9844 22.875 15.562 22.7517 16.1298C22.4552 17.4969 21.9143 18.759 21.1484 19.9248C20.8992 20.3042 20.4708 20.4323 20.0552 20.2434C19.4438 19.9652 18.8362 19.6767 18.2366 19.3742C17.7985 19.153 17.6419 18.6653 17.8437 18.2407C18.0428 17.8203 18.5267 17.6368 18.9718 17.8289C19.2996 17.9705 19.6204 18.1293 19.9401 18.2891C20.052 18.3451 20.1075 18.3386 20.171 18.2175C21.0117 16.6266 21.3804 14.9371 21.2512 13.1383C21.1758 12.0845 20.9256 11.0759 20.5052 10.1087C20.3959 9.85678 20.3432 9.60543 20.4503 9.33901C20.5811 9.01392 20.8841 8.7981 21.2313 8.7981C21.6247 8.7981 21.8938 8.99347 22.051 9.3487C22.3239 9.9655 22.5418 10.6011 22.6968 11.2578C22.8303 11.8234 22.9267 12.3945 22.9627 12.9758C22.9665 13.0388 22.9869 13.1001 22.9999 13.1625V14.4112V14.4107Z" fill="#EA3424"/>
<path d="M1.00382 14.1169C0.886489 9.7013 3.48073 5.55591 7.43129 3.8013C10.4147 2.47673 13.4201 2.4692 16.4272 3.73833C16.834 3.91002 17.0477 4.2308 17.024 4.61617C17.0014 4.9827 16.7436 5.29702 16.3836 5.39229C16.1505 5.45418 15.9309 5.40413 15.7162 5.30994C15.0186 5.00315 14.2942 4.78679 13.5434 4.66138C13.3254 4.62478 13.045 4.51929 12.9002 4.6124C12.7645 4.69959 12.8673 5.01176 12.8593 5.2249C12.8517 5.43965 12.863 5.65548 12.8555 5.87023C12.8388 6.35463 12.4755 6.7147 12.0062 6.71955C11.5293 6.72439 11.1536 6.35948 11.1407 5.86539C11.1316 5.50693 11.1257 5.1474 11.1434 4.78948C11.1531 4.5941 11.0864 4.57096 10.9152 4.59195C9.51529 4.7631 8.21763 5.22167 7.0287 5.98003C5.8769 6.7147 4.93339 7.66198 4.18634 8.80893C4.0873 8.96125 4.11691 9.00969 4.26922 9.07804C4.62768 9.23897 4.98452 9.40636 5.32952 9.59474C5.64761 9.76858 5.79616 10.0608 5.75741 10.4214C5.71866 10.7794 5.51575 11.0291 5.17182 11.1475C4.93662 11.2282 4.7068 11.1954 4.48505 11.0883C4.14382 10.9236 3.80043 10.7627 3.46189 10.5926C3.35317 10.5382 3.31226 10.5501 3.26974 10.6733C2.38652 13.2563 2.55606 15.7606 3.81012 18.1896C3.87901 18.3231 3.93606 18.3462 4.06793 18.2757C4.33919 18.131 4.61745 17.9991 4.89518 17.8672C5.38711 17.6342 5.89197 17.7881 6.10726 18.2327C6.3247 18.6816 6.13847 19.1692 5.64977 19.413C5.10562 19.6843 4.5604 19.9528 4.01195 20.215C3.5367 20.4421 3.09913 20.3145 2.81817 19.8813C1.91611 18.491 1.33591 16.9786 1.10501 15.3349C1.04419 14.9016 1.0092 14.4651 1.00382 14.1174V14.1169Z" fill="#EA3424"/>
<path d="M11.9433 16.4081C10.9686 16.414 10.0385 15.8004 9.62624 14.8354C9.22365 13.8935 9.41741 12.7707 10.1435 12.0447C10.5897 11.5985 11.1203 11.2492 11.6306 10.881C13.9062 9.23838 16.2254 7.65869 18.5328 6.06232C18.8417 5.84865 19.1646 5.79321 19.5005 5.97567C19.803 6.13983 19.9478 6.40894 19.9456 6.75394C19.9445 6.93963 19.8724 7.10271 19.7685 7.25287C17.9612 9.86971 16.1888 12.5113 14.2986 15.0706C13.8728 15.647 13.3927 16.1422 12.6656 16.3219C12.4481 16.3758 12.2302 16.4021 11.9422 16.4081H11.9433ZM15.6748 10.1259C15.1048 10.5274 14.5779 10.8966 14.0526 11.2696C13.1941 11.8789 12.3244 12.4726 11.5014 13.1308C11.2194 13.3563 11.0875 13.6432 11.1618 14.0006C11.2334 14.3472 11.4524 14.5792 11.7947 14.6594C12.1527 14.7433 12.4584 14.6319 12.6898 14.3364C13.7286 13.0097 14.6554 11.6017 15.6344 10.2319C15.6457 10.2163 15.649 10.1948 15.6748 10.1254V10.1259Z" fill="#EA3424"/>
</svg>
