<svg width="328" height="98" viewBox="0 0 328 98" fill="none" xmlns="http://www.w3.org/2000/svg">
<path d="M89 1H327V97H89V1Z" stroke="white" stroke-width="2"/>
<path d="M12 0H88V98H36.1574C16.9417 98 2.05911 81.1839 4.39461 62.1107L12 0Z" fill="white"/>
<path d="M122.12 28.82L122.032 30.47H115.652L115.432 34.606L117.06 34.738C118.057 34.8113 118.901 34.9433 119.59 35.134C120.294 35.3247 120.866 35.6033 121.306 35.97C121.746 36.3367 122.061 36.806 122.252 37.378C122.457 37.9353 122.56 38.6247 122.56 39.446C122.56 40.062 122.494 40.656 122.362 41.228C122.245 41.8 122.01 42.3133 121.658 42.768C121.321 43.2227 120.829 43.5893 120.184 43.868C119.539 44.132 118.695 44.264 117.654 44.264C117.053 44.264 116.356 44.22 115.564 44.132C114.772 44.044 113.965 43.9047 113.144 43.714L113.364 42.152C114.053 42.2693 114.743 42.3647 115.432 42.438C116.121 42.5113 116.715 42.548 117.214 42.548C118.182 42.548 118.908 42.4307 119.392 42.196C119.876 41.9467 120.206 41.5947 120.382 41.14C120.558 40.6707 120.653 40.106 120.668 39.446C120.683 38.742 120.595 38.192 120.404 37.796C120.228 37.3853 119.935 37.0847 119.524 36.894C119.128 36.6887 118.593 36.5493 117.918 36.476C117.258 36.388 116.444 36.3147 115.476 36.256L114.464 36.19C114.244 36.1607 114.061 36.0727 113.914 35.926C113.782 35.7647 113.723 35.5667 113.738 35.332L114.09 28.82H122.12ZM139.419 33.286L135.129 44.594C134.953 45.0633 134.733 45.5253 134.469 45.98C134.205 46.4347 133.883 46.8453 133.501 47.212C133.135 47.5933 132.695 47.9013 132.181 48.136C131.683 48.3707 131.103 48.5027 130.443 48.532L130.267 47.3C131.133 47.0213 131.8 46.6473 132.269 46.178C132.739 45.7087 133.113 45.1367 133.391 44.462L133.919 43.186C134.037 42.8927 134.154 42.57 134.271 42.218C134.389 41.866 134.499 41.5507 134.601 41.272L137.395 33.286H139.419ZM130.597 33.286L133.435 41.272C133.509 41.492 133.582 41.712 133.655 41.932C133.729 42.1373 133.787 42.35 133.831 42.57H134.337L133.721 44H133.149C133.003 44 132.863 43.956 132.731 43.868C132.614 43.78 132.533 43.6627 132.489 43.516L128.595 33.286H130.597ZM143.496 33.286V44H141.648V33.286H143.496ZM143.012 28.732C143.393 28.732 143.584 28.9227 143.584 29.304V30.558C143.584 30.9393 143.393 31.13 143.012 31.13H142.132C141.75 31.13 141.56 30.9393 141.56 30.558V29.304C141.56 28.9227 141.75 28.732 142.132 28.732H143.012ZM148.909 28.6L148.887 41.052C148.887 41.5213 149.011 41.8807 149.261 42.13C149.525 42.3647 149.891 42.482 150.361 42.482H151.395L151.615 43.912C151.483 43.9707 151.292 44.022 151.043 44.066C150.808 44.11 150.559 44.1393 150.295 44.154C150.045 44.1833 149.833 44.198 149.657 44.198C148.865 44.198 148.227 43.9633 147.743 43.494C147.273 43.0247 147.039 42.35 147.039 41.47V28.6H148.909ZM155.44 28.6L155.418 41.052C155.418 41.5213 155.543 41.8807 155.792 42.13C156.056 42.3647 156.423 42.482 156.892 42.482H157.926L158.146 43.912C158.014 43.9707 157.823 44.022 157.574 44.066C157.339 44.11 157.09 44.1393 156.826 44.154C156.577 44.1833 156.364 44.198 156.188 44.198C155.396 44.198 154.758 43.9633 154.274 43.494C153.805 43.0247 153.57 42.35 153.57 41.47V28.6H155.44ZM162.015 33.286V44H160.167V33.286H162.015ZM161.531 28.732C161.913 28.732 162.103 28.9227 162.103 29.304V30.558C162.103 30.9393 161.913 31.13 161.531 31.13H160.651C160.27 31.13 160.079 30.9393 160.079 30.558V29.304C160.079 28.9227 160.27 28.732 160.651 28.732H161.531ZM174.292 33.286L170.926 37.224C170.824 37.356 170.699 37.4953 170.552 37.642C170.406 37.774 170.281 37.8767 170.178 37.95V37.994C170.281 38.0673 170.406 38.192 170.552 38.368C170.699 38.5293 170.824 38.6907 170.926 38.852L174.644 44H172.466L168.22 37.862L172.114 33.286H174.292ZM167.406 28.6L167.428 35.442C167.428 35.8967 167.406 36.322 167.362 36.718C167.333 37.0993 167.282 37.5027 167.208 37.928C167.282 38.3387 167.333 38.7493 167.362 39.16C167.392 39.5707 167.406 39.9667 167.406 40.348V44H165.536V28.6H167.406ZM169.232 37.268V38.632H166.746V37.268H169.232ZM190.169 33.286L186.803 37.224C186.701 37.356 186.576 37.4953 186.429 37.642C186.283 37.774 186.158 37.8767 186.055 37.95V37.994C186.158 38.0673 186.283 38.192 186.429 38.368C186.576 38.5293 186.701 38.6907 186.803 38.852L190.521 44H188.343L184.097 37.862L187.991 33.286H190.169ZM183.283 28.6L183.305 35.442C183.305 35.8967 183.283 36.322 183.239 36.718C183.21 37.0993 183.159 37.5027 183.085 37.928C183.159 38.3387 183.21 38.7493 183.239 39.16C183.269 39.5707 183.283 39.9667 183.283 40.348V44H181.413V28.6H183.283ZM185.109 37.268V38.632H182.623V37.268H185.109ZM197.667 33.022C198.459 33.022 199.126 33.132 199.669 33.352C200.226 33.5573 200.644 33.9093 200.923 34.408C201.201 34.9067 201.341 35.5887 201.341 36.454V44H199.867L199.581 41.668L199.449 41.426V36.454C199.449 35.794 199.295 35.3247 198.987 35.046C198.693 34.7527 198.121 34.606 197.271 34.606C196.713 34.606 196.009 34.6353 195.159 34.694C194.323 34.7527 193.494 34.8187 192.673 34.892L192.497 33.506C192.995 33.418 193.538 33.3373 194.125 33.264C194.726 33.1907 195.335 33.132 195.951 33.088C196.567 33.044 197.139 33.022 197.667 33.022ZM200.461 37.4L200.439 38.808L195.313 38.83C194.799 38.8447 194.44 38.984 194.235 39.248C194.029 39.4973 193.927 39.8493 193.927 40.304V40.986C193.927 41.5433 194.059 41.954 194.323 42.218C194.587 42.4673 195.012 42.592 195.599 42.592C196.009 42.592 196.471 42.5187 196.985 42.372C197.513 42.2107 198.041 41.9687 198.569 41.646C199.097 41.3233 199.581 40.9127 200.021 40.414V41.8C199.859 42.0053 199.625 42.2473 199.317 42.526C199.023 42.79 198.664 43.054 198.239 43.318C197.828 43.5673 197.366 43.78 196.853 43.956C196.354 44.1173 195.811 44.198 195.225 44.198C194.594 44.198 194.037 44.088 193.553 43.868C193.069 43.6333 192.687 43.296 192.409 42.856C192.145 42.4013 192.013 41.8513 192.013 41.206V40.04C192.013 39.204 192.269 38.5587 192.783 38.104C193.311 37.6347 194.044 37.4 194.983 37.4H200.461ZM208.641 28.226C208.876 28.226 209.176 28.2333 209.543 28.248C209.91 28.248 210.284 28.2627 210.665 28.292C211.046 28.3067 211.376 28.336 211.655 28.38L211.501 29.766H209.301C208.597 29.766 208.098 29.9053 207.805 30.184C207.526 30.4627 207.387 30.9247 207.387 31.57V44H205.517V31.372C205.517 30.6973 205.62 30.1327 205.825 29.678C206.03 29.2087 206.36 28.8493 206.815 28.6C207.27 28.3507 207.878 28.226 208.641 28.226ZM210.819 33.286V34.76H203.581V33.396L205.627 33.286H210.819ZM217.398 33.022C218.63 33.022 219.613 33.2053 220.346 33.572C221.094 33.9387 221.63 34.54 221.952 35.376C222.275 36.1973 222.436 37.29 222.436 38.654C222.436 40.018 222.275 41.118 221.952 41.954C221.63 42.7753 221.094 43.3693 220.346 43.736C219.613 44.1027 218.63 44.286 217.398 44.286C216.181 44.286 215.198 44.1027 214.45 43.736C213.717 43.3693 213.182 42.7753 212.844 41.954C212.522 41.118 212.36 40.018 212.36 38.654C212.36 37.29 212.522 36.1973 212.844 35.376C213.182 34.54 213.717 33.9387 214.45 33.572C215.198 33.2053 216.181 33.022 217.398 33.022ZM217.398 34.606C216.621 34.606 216.005 34.7307 215.55 34.98C215.11 35.2147 214.795 35.6253 214.604 36.212C214.414 36.7987 214.318 37.6127 214.318 38.654C214.318 39.6953 214.414 40.5093 214.604 41.096C214.795 41.6827 215.11 42.1007 215.55 42.35C216.005 42.5847 216.621 42.702 217.398 42.702C218.176 42.702 218.792 42.5847 219.246 42.35C219.701 42.1007 220.024 41.6827 220.214 41.096C220.405 40.5093 220.5 39.6953 220.5 38.654C220.5 37.6127 220.405 36.7987 220.214 36.212C220.024 35.6253 219.701 35.2147 219.246 34.98C218.792 34.7307 218.176 34.606 217.398 34.606ZM227.262 28.6L227.24 41.052C227.24 41.5213 227.365 41.8807 227.614 42.13C227.878 42.3647 228.245 42.482 228.714 42.482H229.748L229.968 43.912C229.836 43.9707 229.646 44.022 229.396 44.066C229.162 44.11 228.912 44.1393 228.648 44.154C228.399 44.1833 228.186 44.198 228.01 44.198C227.218 44.198 226.58 43.9633 226.096 43.494C225.627 43.0247 225.392 42.35 225.392 41.47V28.6H227.262ZM236.962 33.022C237.754 33.022 238.421 33.132 238.964 33.352C239.521 33.5573 239.939 33.9093 240.218 34.408C240.496 34.9067 240.636 35.5887 240.636 36.454V44H239.162L238.876 41.668L238.744 41.426V36.454C238.744 35.794 238.59 35.3247 238.282 35.046C237.988 34.7527 237.416 34.606 236.566 34.606C236.008 34.606 235.304 34.6353 234.454 34.694C233.618 34.7527 232.789 34.8187 231.968 34.892L231.792 33.506C232.29 33.418 232.833 33.3373 233.42 33.264C234.021 33.1907 234.63 33.132 235.246 33.088C235.862 33.044 236.434 33.022 236.962 33.022ZM239.756 37.4L239.734 38.808L234.608 38.83C234.094 38.8447 233.735 38.984 233.53 39.248C233.324 39.4973 233.222 39.8493 233.222 40.304V40.986C233.222 41.5433 233.354 41.954 233.618 42.218C233.882 42.4673 234.307 42.592 234.894 42.592C235.304 42.592 235.766 42.5187 236.28 42.372C236.808 42.2107 237.336 41.9687 237.864 41.646C238.392 41.3233 238.876 40.9127 239.316 40.414V41.8C239.154 42.0053 238.92 42.2473 238.612 42.526C238.318 42.79 237.959 43.054 237.534 43.318C237.123 43.5673 236.661 43.78 236.148 43.956C235.649 44.1173 235.106 44.198 234.52 44.198C233.889 44.198 233.332 44.088 232.848 43.868C232.364 43.6333 231.982 43.296 231.704 42.856C231.44 42.4013 231.308 41.8513 231.308 41.206V40.04C231.308 39.204 231.564 38.5587 232.078 38.104C232.606 37.6347 233.339 37.4 234.278 37.4H239.756ZM246.66 30.118V41.052C246.66 41.5653 246.77 41.932 246.99 42.152C247.21 42.372 247.584 42.482 248.112 42.482H249.74L249.96 43.912C249.725 43.9707 249.454 44.022 249.146 44.066C248.838 44.11 248.537 44.1393 248.244 44.154C247.95 44.1833 247.716 44.198 247.54 44.198C246.645 44.198 245.963 43.9487 245.494 43.45C245.024 42.9513 244.79 42.2327 244.79 41.294V30.118H246.66ZM250.07 33.286V34.76H242.854V33.396L244.966 33.286H250.07ZM266.263 33.286L261.973 44.594C261.797 45.0633 261.577 45.5253 261.313 45.98C261.049 46.4347 260.726 46.8453 260.345 47.212C259.978 47.5933 259.538 47.9013 259.025 48.136C258.526 48.3707 257.947 48.5027 257.287 48.532L257.111 47.3C257.976 47.0213 258.644 46.6473 259.113 46.178C259.582 45.7087 259.956 45.1367 260.235 44.462L260.763 43.186C260.88 42.8927 260.998 42.57 261.115 42.218C261.232 41.866 261.342 41.5507 261.445 41.272L264.239 33.286H266.263ZM257.441 33.286L260.279 41.272C260.352 41.492 260.426 41.712 260.499 41.932C260.572 42.1373 260.631 42.35 260.675 42.57H261.181L260.565 44H259.993C259.846 44 259.707 43.956 259.575 43.868C259.458 43.78 259.377 43.6627 259.333 43.516L255.439 33.286H257.441ZM272.807 33.022C274.039 33.022 275.021 33.2053 275.755 33.572C276.503 33.9387 277.038 34.54 277.361 35.376C277.683 36.1973 277.845 37.29 277.845 38.654C277.845 40.018 277.683 41.118 277.361 41.954C277.038 42.7753 276.503 43.3693 275.755 43.736C275.021 44.1027 274.039 44.286 272.807 44.286C271.589 44.286 270.607 44.1027 269.859 43.736C269.125 43.3693 268.59 42.7753 268.253 41.954C267.93 41.118 267.769 40.018 267.769 38.654C267.769 37.29 267.93 36.1973 268.253 35.376C268.59 34.54 269.125 33.9387 269.859 33.572C270.607 33.2053 271.589 33.022 272.807 33.022ZM272.807 34.606C272.029 34.606 271.413 34.7307 270.959 34.98C270.519 35.2147 270.203 35.6253 270.013 36.212C269.822 36.7987 269.727 37.6127 269.727 38.654C269.727 39.6953 269.822 40.5093 270.013 41.096C270.203 41.6827 270.519 42.1007 270.959 42.35C271.413 42.5847 272.029 42.702 272.807 42.702C273.584 42.702 274.2 42.5847 274.655 42.35C275.109 42.1007 275.432 41.6827 275.623 41.096C275.813 40.5093 275.909 39.6953 275.909 38.654C275.909 37.6127 275.813 36.7987 275.623 36.212C275.432 35.6253 275.109 35.2147 274.655 34.98C274.2 34.7307 273.584 34.606 272.807 34.606ZM289.535 33.286L286.169 37.224C286.066 37.356 285.941 37.4953 285.795 37.642C285.648 37.774 285.523 37.8767 285.421 37.95V37.994C285.523 38.0673 285.648 38.192 285.795 38.368C285.941 38.5293 286.066 38.6907 286.169 38.852L289.887 44H287.709L283.463 37.862L287.357 33.286H289.535ZM282.649 28.6L282.671 35.442C282.671 35.8967 282.649 36.322 282.605 36.718C282.575 37.0993 282.524 37.5027 282.451 37.928C282.524 38.3387 282.575 38.7493 282.605 39.16C282.634 39.5707 282.649 39.9667 282.649 40.348V44H280.779V28.6H282.649ZM284.475 37.268V38.632H281.989V37.268H284.475ZM293.908 33.286V44H292.06V33.286H293.908ZM293.424 28.732C293.805 28.732 293.996 28.9227 293.996 29.304V30.558C293.996 30.9393 293.805 31.13 293.424 31.13H292.544C292.163 31.13 291.972 30.9393 291.972 30.558V29.304C291.972 28.9227 292.163 28.732 292.544 28.732H293.424ZM118.292 56.82V72H116.356V59.966C116.356 59.746 116.363 59.526 116.378 59.306C116.393 59.086 116.422 58.866 116.466 58.646L112.748 59.812L112.484 58.382L116.356 56.82H118.292ZM130.886 56.82L130.798 58.47H124.418L124.198 62.606L125.826 62.738C126.823 62.8113 127.666 62.9433 128.356 63.134C129.06 63.3247 129.632 63.6033 130.072 63.97C130.512 64.3367 130.827 64.806 131.018 65.378C131.223 65.9353 131.326 66.6247 131.326 67.446C131.326 68.062 131.26 68.656 131.128 69.228C131.01 69.8 130.776 70.3133 130.424 70.768C130.086 71.2227 129.595 71.5893 128.95 71.868C128.304 72.132 127.461 72.264 126.42 72.264C125.818 72.264 125.122 72.22 124.33 72.132C123.538 72.044 122.731 71.9047 121.91 71.714L122.13 70.152C122.819 70.2693 123.508 70.3647 124.198 70.438C124.887 70.5113 125.481 70.548 125.98 70.548C126.948 70.548 127.674 70.4307 128.158 70.196C128.642 69.9467 128.972 69.5947 129.148 69.14C129.324 68.6707 129.419 68.106 129.434 67.446C129.448 66.742 129.36 66.192 129.17 65.796C128.994 65.3853 128.7 65.0847 128.29 64.894C127.894 64.6887 127.358 64.5493 126.684 64.476C126.024 64.388 125.21 64.3147 124.242 64.256L123.23 64.19C123.01 64.1607 122.826 64.0727 122.68 63.926C122.548 63.7647 122.489 63.5667 122.504 63.332L122.856 56.82H130.886ZM139.183 56.534C140.488 56.534 141.522 56.8053 142.285 57.348C143.047 57.8907 143.59 58.7413 143.913 59.9C144.25 61.0587 144.419 62.562 144.419 64.41C144.419 66.258 144.25 67.7613 143.913 68.92C143.59 70.0787 143.047 70.9293 142.285 71.472C141.522 72.0147 140.488 72.286 139.183 72.286C137.892 72.286 136.865 72.0147 136.103 71.472C135.34 70.9293 134.79 70.0787 134.453 68.92C134.13 67.7613 133.969 66.258 133.969 64.41C133.969 62.562 134.13 61.0587 134.453 59.9C134.79 58.7413 135.34 57.8907 136.103 57.348C136.865 56.8053 137.892 56.534 139.183 56.534ZM139.183 58.228C138.552 58.228 138.024 58.3453 137.599 58.58C137.173 58.8 136.829 59.152 136.565 59.636C136.315 60.12 136.132 60.758 136.015 61.55C135.912 62.3273 135.861 63.2807 135.861 64.41C135.861 65.5247 135.912 66.478 136.015 67.27C136.132 68.062 136.315 68.7 136.565 69.184C136.829 69.668 137.173 70.0273 137.599 70.262C138.024 70.482 138.552 70.592 139.183 70.592C139.813 70.592 140.341 70.482 140.767 70.262C141.207 70.0273 141.551 69.668 141.801 69.184C142.065 68.7 142.248 68.062 142.351 67.27C142.468 66.478 142.527 65.5247 142.527 64.41C142.527 63.2807 142.468 62.3273 142.351 61.55C142.248 60.758 142.065 60.12 141.801 59.636C141.551 59.152 141.207 58.8 140.767 58.58C140.341 58.3453 139.813 58.228 139.183 58.228ZM148.61 69.404C148.874 69.404 149.05 69.4553 149.138 69.558C149.241 69.6607 149.292 69.844 149.292 70.108V71.516C149.292 71.9267 149.256 72.33 149.182 72.726C149.124 73.122 149.036 73.496 148.918 73.848C148.816 74.2147 148.684 74.5667 148.522 74.904L147.642 74.64C147.716 74.1853 147.767 73.7673 147.796 73.386C147.84 73.0047 147.862 72.5427 147.862 72C147.51 72 147.334 71.7947 147.334 71.384V70.108C147.349 69.844 147.415 69.6607 147.532 69.558C147.65 69.4553 147.826 69.404 148.06 69.404H148.61ZM157.444 56.534C158.75 56.534 159.784 56.8053 160.546 57.348C161.309 57.8907 161.852 58.7413 162.174 59.9C162.512 61.0587 162.68 62.562 162.68 64.41C162.68 66.258 162.512 67.7613 162.174 68.92C161.852 70.0787 161.309 70.9293 160.546 71.472C159.784 72.0147 158.75 72.286 157.444 72.286C156.154 72.286 155.127 72.0147 154.364 71.472C153.602 70.9293 153.052 70.0787 152.714 68.92C152.392 67.7613 152.23 66.258 152.23 64.41C152.23 62.562 152.392 61.0587 152.714 59.9C153.052 58.7413 153.602 57.8907 154.364 57.348C155.127 56.8053 156.154 56.534 157.444 56.534ZM157.444 58.228C156.814 58.228 156.286 58.3453 155.86 58.58C155.435 58.8 155.09 59.152 154.826 59.636C154.577 60.12 154.394 60.758 154.276 61.55C154.174 62.3273 154.122 63.2807 154.122 64.41C154.122 65.5247 154.174 66.478 154.276 67.27C154.394 68.062 154.577 68.7 154.826 69.184C155.09 69.668 155.435 70.0273 155.86 70.262C156.286 70.482 156.814 70.592 157.444 70.592C158.075 70.592 158.603 70.482 159.028 70.262C159.468 70.0273 159.813 69.668 160.062 69.184C160.326 68.7 160.51 68.062 160.612 67.27C160.73 66.478 160.788 65.5247 160.788 64.41C160.788 63.2807 160.73 62.3273 160.612 61.55C160.51 60.758 160.326 60.12 160.062 59.636C159.813 59.152 159.468 58.8 159.028 58.58C158.603 58.3453 158.075 58.228 157.444 58.228ZM170.7 56.534C172.005 56.534 173.039 56.8053 173.802 57.348C174.565 57.8907 175.107 58.7413 175.43 59.9C175.767 61.0587 175.936 62.562 175.936 64.41C175.936 66.258 175.767 67.7613 175.43 68.92C175.107 70.0787 174.565 70.9293 173.802 71.472C173.039 72.0147 172.005 72.286 170.7 72.286C169.409 72.286 168.383 72.0147 167.62 71.472C166.857 70.9293 166.307 70.0787 165.97 68.92C165.647 67.7613 165.486 66.258 165.486 64.41C165.486 62.562 165.647 61.0587 165.97 59.9C166.307 58.7413 166.857 57.8907 167.62 57.348C168.383 56.8053 169.409 56.534 170.7 56.534ZM170.7 58.228C170.069 58.228 169.541 58.3453 169.116 58.58C168.691 58.8 168.346 59.152 168.082 59.636C167.833 60.12 167.649 60.758 167.532 61.55C167.429 62.3273 167.378 63.2807 167.378 64.41C167.378 65.5247 167.429 66.478 167.532 67.27C167.649 68.062 167.833 68.7 168.082 69.184C168.346 69.668 168.691 70.0273 169.116 70.262C169.541 70.482 170.069 70.592 170.7 70.592C171.331 70.592 171.859 70.482 172.284 70.262C172.724 70.0273 173.069 69.668 173.318 69.184C173.582 68.7 173.765 68.062 173.868 67.27C173.985 66.478 174.044 65.5247 174.044 64.41C174.044 63.2807 173.985 62.3273 173.868 61.55C173.765 60.758 173.582 60.12 173.318 59.636C173.069 59.152 172.724 58.8 172.284 58.58C171.859 58.3453 171.331 58.228 170.7 58.228ZM183.956 56.534C185.261 56.534 186.295 56.8053 187.058 57.348C187.821 57.8907 188.363 58.7413 188.686 59.9C189.023 61.0587 189.192 62.562 189.192 64.41C189.192 66.258 189.023 67.7613 188.686 68.92C188.363 70.0787 187.821 70.9293 187.058 71.472C186.295 72.0147 185.261 72.286 183.956 72.286C182.665 72.286 181.639 72.0147 180.876 71.472C180.113 70.9293 179.563 70.0787 179.226 68.92C178.903 67.7613 178.742 66.258 178.742 64.41C178.742 62.562 178.903 61.0587 179.226 59.9C179.563 58.7413 180.113 57.8907 180.876 57.348C181.639 56.8053 182.665 56.534 183.956 56.534ZM183.956 58.228C183.325 58.228 182.797 58.3453 182.372 58.58C181.947 58.8 181.602 59.152 181.338 59.636C181.089 60.12 180.905 60.758 180.788 61.55C180.685 62.3273 180.634 63.2807 180.634 64.41C180.634 65.5247 180.685 66.478 180.788 67.27C180.905 68.062 181.089 68.7 181.338 69.184C181.602 69.668 181.947 70.0273 182.372 70.262C182.797 70.482 183.325 70.592 183.956 70.592C184.587 70.592 185.115 70.482 185.54 70.262C185.98 70.0273 186.325 69.668 186.574 69.184C186.838 68.7 187.021 68.062 187.124 67.27C187.241 66.478 187.3 65.5247 187.3 64.41C187.3 63.2807 187.241 62.3273 187.124 61.55C187.021 60.758 186.838 60.12 186.574 59.636C186.325 59.152 185.98 58.8 185.54 58.58C185.115 58.3453 184.587 58.228 183.956 58.228ZM205.96 61.286L202.594 65.224C202.492 65.356 202.367 65.4953 202.22 65.642C202.074 65.774 201.949 65.8767 201.846 65.95V65.994C201.949 66.0673 202.074 66.192 202.22 66.368C202.367 66.5293 202.492 66.6907 202.594 66.852L206.312 72H204.134L199.888 65.862L203.782 61.286H205.96ZM199.074 56.6L199.096 63.442C199.096 63.8967 199.074 64.322 199.03 64.718C199.001 65.0993 198.95 65.5027 198.876 65.928C198.95 66.3387 199.001 66.7493 199.03 67.16C199.06 67.5707 199.074 67.9667 199.074 68.348V72H197.204V56.6H199.074ZM200.9 65.268V66.632H198.414V65.268H200.9ZM221.444 61.022C222.368 61.022 223.072 61.2713 223.556 61.77C224.054 62.2687 224.304 63.002 224.304 63.97V72H222.456V64.498C222.441 63.838 222.309 63.3613 222.06 63.068C221.81 62.76 221.385 62.606 220.784 62.606C220.402 62.606 220.036 62.672 219.684 62.804C219.346 62.9213 218.972 63.112 218.562 63.376C218.151 63.64 217.652 63.9847 217.066 64.41L216.956 63.09C217.733 62.4007 218.488 61.8873 219.222 61.55C219.955 61.198 220.696 61.022 221.444 61.022ZM209.938 61.286L210.07 63.332L210.268 63.662V72H208.398V61.286H209.938ZM214.426 61.022C215.335 61.022 216.032 61.2713 216.516 61.77C217 62.254 217.249 62.9873 217.264 63.97V72H215.46V64.498C215.46 63.8087 215.32 63.3247 215.042 63.046C214.763 62.7527 214.345 62.606 213.788 62.606C213.421 62.606 213.062 62.6647 212.71 62.782C212.372 62.8993 211.991 63.09 211.566 63.354C211.155 63.618 210.649 63.97 210.048 64.41L209.916 63.09C210.693 62.4007 211.448 61.8873 212.182 61.55C212.915 61.198 213.663 61.022 214.426 61.022Z" fill="white"/>
<path d="M62.79 24.01L62.435 32.175H42.058L41.49 41.405L48.661 42.186C51.643 42.47 54.128 43.038 56.116 43.89C58.1513 44.742 59.7607 45.8543 60.944 47.227C62.1273 48.5997 62.9793 50.1853 63.5 51.984C64.0207 53.7827 64.281 55.7943 64.281 58.019C64.281 60.149 64.0207 62.1843 63.5 64.125C62.9793 66.0183 62.08 67.6987 60.802 69.166C59.5713 70.6333 57.8437 71.793 55.619 72.645C53.3943 73.4497 50.5543 73.852 47.099 73.852C44.827 73.852 42.2473 73.71 39.36 73.426C36.52 73.1893 33.6327 72.8343 30.698 72.361L31.692 64.054C34.0113 64.2907 36.2597 64.5037 38.437 64.693C40.6617 64.835 42.626 64.906 44.33 64.906C46.8387 64.906 48.732 64.6457 50.01 64.125C51.288 63.6043 52.1637 62.8233 52.637 61.782C53.1577 60.6933 53.4653 59.3443 53.56 57.735C53.6073 56.173 53.418 54.9423 52.992 54.043C52.6133 53.0963 51.9507 52.3627 51.004 51.842C50.1047 51.3213 48.8977 50.9663 47.383 50.777C45.9157 50.5403 44.0933 50.351 41.916 50.209L35.81 49.499C34.816 49.357 34.0113 48.9547 33.396 48.292C32.7807 47.582 32.4967 46.73 32.544 45.736L33.751 24.01H62.79Z" fill="#171F5E"/>
</svg>
