<svg width="723" height="48" viewBox="0 0 723 48" fill="none" xmlns="http://www.w3.org/2000/svg">
<g clip-path="url(#clip0_252_329)">
<path d="M715.8 0.213196H637.678C634.298 0.213196 631.536 2.97719 631.536 6.35596V41.4238C631.536 44.8038 634.298 47.5653 637.678 47.5653H715.8C719.239 47.5653 722.002 44.8038 722.002 41.4238V6.35596C722.002 2.97719 719.239 0.213196 715.8 0.213196ZM708.124 37.1858H644.863V10.9618H708.124V37.1858Z" fill="#EA3424"/>
<path d="M619.153 6.3572C619.153 2.97967 616.389 0.215668 612.949 0.215668H528.681V10.9643H605.271L548.716 47.5641H571.98L619.158 15.8343L619.153 6.3572Z" fill="#EA3424"/>
<path d="M521.872 47.4654L484.761 23.4103L520.389 0.314453H499.802L474.468 16.738L449.133 0.314453H428.547L464.175 23.4103L427.064 47.4666H447.65L474.468 30.0814L501.286 47.4654H521.872Z" fill="#EA3424"/>
</g>
<path d="M266.979 8H214.431C212.03 8 210.095 9.94477 210.095 12.3261V42.6784C210.095 45.0697 212.039 47.0045 214.431 47.0045H266.979C269.38 47.0045 271.315 45.0697 271.315 42.6784V12.336C271.315 9.94477 269.371 8.00992 266.979 8.00992M221.734 38.8187V16.2157C221.734 16.1065 221.823 16.0172 221.932 16.0172H259.478C259.587 16.0172 259.667 16.1065 259.667 16.2157V38.8187C259.667 38.9278 259.587 39.0072 259.478 39.0072H221.932C221.823 39.0072 221.734 38.9179 221.734 38.8187Z" fill="white"/>
<path d="M59.0277 8H48.1727C47.9545 8 47.7759 8.1786 47.7759 8.39689V38.8187C47.7759 38.9278 47.6866 39.0171 47.5774 39.0171H11.8373C11.7282 39.0171 11.6488 38.9278 11.6488 38.8187V32.3791C11.6488 32.1608 11.4702 31.9822 11.2519 31.9822H0.396892C0.178601 31.9822 0 32.1608 0 32.3791V42.6983C0 45.0895 1.93485 47.0343 4.33604 47.0343H55.0886C57.4898 47.0343 59.4246 45.0895 59.4246 42.6983V8.39689C59.4246 8.1786 59.256 8 59.0377 8" fill="white"/>
<path d="M199.329 8H139.657C139.438 8 139.27 8.1786 139.27 8.39689V15.6203C139.27 15.8386 139.438 16.0172 139.657 16.0172H163.48C163.589 16.0172 163.678 16.1065 163.678 16.2157V46.6374C163.678 46.8557 163.857 47.0244 164.065 47.0244H174.92C175.139 47.0244 175.317 46.8458 175.317 46.6374V16.2057C175.317 16.0966 175.407 16.0073 175.516 16.0073H199.339C199.557 16.0073 199.746 15.8287 199.746 15.6104V8.39689C199.746 8.1786 199.557 8 199.339 8" fill="white"/>
<path d="M340.434 8H329.579C329.361 8 329.182 8.1786 329.182 8.39689V38.8186C329.182 38.9278 329.093 39.0171 328.984 39.0171H293.521C293.412 39.0171 293.323 38.9278 293.323 38.8186V8.39689C293.323 8.1786 293.144 8 292.936 8H282.081C281.863 8 281.684 8.1786 281.684 8.39689V42.6883C281.684 45.0796 283.619 47.0145 286.01 47.0145H336.475C338.866 47.0145 340.811 45.0796 340.811 42.6883V8.39689C340.811 8.1786 340.632 8 340.414 8" fill="white"/>
<path d="M411.676 46.31L389.51 31.1189H406.765C409.156 31.1189 411.101 29.1742 411.101 26.7829V12.336C411.101 9.94477 409.156 8 406.765 8H351.587C351.368 8 351.2 8.16868 351.2 8.39689V46.6275C351.2 46.8458 351.378 47.0145 351.587 47.0145H362.442C362.66 47.0145 362.839 46.8359 362.839 46.6275V24.5305L395.404 46.8458C395.572 46.9649 395.761 47.0145 395.959 47.0145H411.438C411.825 47.0145 411.984 46.5183 411.666 46.3001M363.027 16.0073H399.253C399.363 16.0073 399.452 16.0966 399.452 16.2057V22.9033C399.452 23.0124 399.363 23.1017 399.253 23.1017H363.027C362.918 23.1017 362.829 23.0124 362.829 22.9033V16.2057C362.829 16.0966 362.918 16.0073 363.027 16.0073Z" fill="white"/>
<path d="M128.484 16.0172C128.702 16.0172 128.881 15.8386 128.881 15.6203V8.39689C128.881 8.1786 128.702 8 128.484 8H74.1295C71.7283 8 69.7935 9.94477 69.7935 12.336V42.6883C69.7935 45.0796 71.7283 47.0145 74.1295 47.0145H128.484C128.702 47.0145 128.881 46.8359 128.881 46.6275V39.4041C128.881 39.1858 128.702 39.0072 128.484 39.0072H81.6407C81.5315 39.0072 81.4522 38.9179 81.4522 38.8087V31.7044C81.4522 31.5952 81.5315 31.5059 81.6407 31.5059H125.487C125.696 31.5059 125.884 31.3273 125.884 31.109V23.8856C125.884 23.6673 125.696 23.4887 125.487 23.4887H81.6407C81.5315 23.4887 81.4522 23.3994 81.4522 23.2903V16.1859C81.4522 16.0767 81.5315 15.9874 81.6407 15.9874H128.484V16.0172Z" fill="white"/>
<defs>
<clipPath id="clip0_252_329">
<rect width="295.149" height="48" fill="white" transform="translate(427)"/>
</clipPath>
</defs>
</svg>
