<svg width="506" height="48" viewBox="0 0 506 48" fill="none" xmlns="http://www.w3.org/2000/svg">
<path d="M377.016 47.9878H404.101V40.9129H381.988V40.9564H379.192C378.09 40.9564 378.107 39.8637 378.107 39.8637V0.82196H369.514V40.4318C369.514 47.6784 377.016 47.9878 377.016 47.9878Z" fill="white"/>
<path d="M445.682 0.820755V39.8637C445.682 39.8637 445.7 40.9564 444.598 40.9564H441.802V40.9129H425.462V40.9564H422.669C421.566 40.9564 421.584 39.8637 421.584 39.8637V0.821964H412.988V40.4318C412.988 47.6784 420.491 47.9878 420.491 47.9878H438.829H446.777C446.777 47.9878 454.28 47.6784 454.28 40.4318V0.820755H445.684H445.682Z" fill="white"/>
<path d="M504.18 11.997V7.55596C504.18 0.309442 496.678 0 496.678 0H470.358C470.358 0 462.855 0.309442 462.855 7.55596V19.5638C462.855 26.8115 470.358 27.121 470.358 27.121H491.702V27.0774H494.497C495.599 27.0774 495.582 28.1702 495.582 28.1702V29.7355V40.6821C495.582 40.6821 495.598 41.7748 494.497 41.7748H491.702V41.7313H475.332V41.7748H472.537C471.435 41.7748 471.452 40.6821 471.452 40.6821V35.9896H462.856V40.4294C462.856 47.6772 470.359 47.9854 470.359 47.9854H496.679C496.679 47.9854 504.182 47.6759 504.182 40.4294V28.4216C504.182 21.1751 496.679 20.8656 496.679 20.8656H475.334V20.9091H472.54C471.437 20.9091 471.454 19.8164 471.454 19.8164V18.2511V7.30454C471.454 7.30454 471.439 6.21182 472.54 6.21182H475.334V6.25534H491.705V6.21182H494.499C495.602 6.21182 495.585 7.30454 495.585 7.30454V11.997H504.18Z" fill="white"/>
<path d="M315.238 47.988H324.465V31.7193H353.177C353.177 31.7193 360.68 31.4123 360.68 24.2177V8.32373C360.68 1.12918 353.177 0.822159 353.177 0.822159H324.465H315.237V47.988H315.238ZM352.083 23.6532C352.083 23.6532 352.101 24.7387 350.999 24.7387H348.203V24.6964H324.465V7.84506H348.203V7.80275H350.999C352.101 7.80275 352.083 8.88822 352.083 8.88822V23.6544V23.6532Z" fill="white"/>
<path d="M283.783 1.20876H207.289C203.98 1.20876 201.275 3.91517 201.275 7.22355V41.5608C201.275 44.8704 203.98 47.5744 207.289 47.5744H283.783C287.151 47.5744 289.856 44.8704 289.856 41.5608V7.22355C289.856 3.91517 287.151 1.20876 283.783 1.20876ZM276.267 37.4111H214.324V11.7334H276.267V37.4111Z" fill="white"/>
<path d="M189.149 7.22475C189.149 3.91758 186.443 1.21117 183.075 1.21117H100.563V11.7358H175.557L120.18 47.5732H142.959L189.154 16.5044L189.149 7.22475Z" fill="white"/>
<path d="M93.8955 47.4765L57.5578 23.9226L92.4438 1.30789H72.2853L47.4791 17.3892L22.6717 1.30789H2.51443L37.4005 23.9226L1.06271 47.4777H21.22L47.4791 30.4547L73.7382 47.4765H93.8955Z" fill="white"/>
</svg>
