<svg width="625" height="110" viewBox="0 0 625 110" fill="none" xmlns="http://www.w3.org/2000/svg">
<g clip-path="url(#clip0_252_601)">
<path d="M273.584 0H219.736C217.275 0 215.292 1.99288 215.292 4.43315V35.5364C215.292 37.9868 217.285 39.9695 219.736 39.9695H273.584C276.045 39.9695 278.027 37.9868 278.027 35.5364V4.44331C278.027 1.99288 276.034 0.0101678 273.584 0.0101678M227.219 31.5811V8.41891C227.219 8.30707 227.311 8.21556 227.422 8.21556H265.897C266.009 8.21556 266.09 8.30707 266.09 8.41891V31.5811C266.09 31.6929 266.009 31.7743 265.897 31.7743H227.422C227.311 31.7743 227.219 31.6828 227.219 31.5811Z" fill="white"/>
<path d="M60.4881 0H49.3645C49.1408 0 48.9578 0.18302 48.9578 0.406711V31.5811C48.9578 31.6929 48.8663 31.7844 48.7544 31.7844H12.1301C12.0183 31.7844 11.937 31.6929 11.937 31.5811V24.9822C11.937 24.7585 11.7539 24.5755 11.5302 24.5755H0.406711C0.18302 24.5755 0 24.7585 0 24.9822V35.5567C0 38.0071 1.98271 40 4.44331 40H56.4514C58.912 40 60.8948 38.0071 60.8948 35.5567V0.406711C60.8948 0.18302 60.7219 0 60.4982 0" fill="white"/>
<path d="M204.26 0H143.111C142.888 0 142.715 0.18302 142.715 0.406711V7.80885C142.715 8.03254 142.888 8.21556 143.111 8.21556H167.524C167.636 8.21556 167.728 8.30707 167.728 8.41891V39.5933C167.728 39.817 167.911 39.9898 168.124 39.9898H179.248C179.471 39.9898 179.654 39.8068 179.654 39.5933V8.40874C179.654 8.2969 179.746 8.20539 179.858 8.20539H204.271C204.494 8.20539 204.687 8.02237 204.687 7.79868V0.406711C204.687 0.18302 204.494 0 204.271 0" fill="white"/>
<path d="M348.856 0H337.733C337.509 0 337.326 0.18302 337.326 0.406711V31.5811C337.326 31.6929 337.234 31.7844 337.123 31.7844H300.783C300.671 31.7844 300.58 31.6929 300.58 31.5811V0.406711C300.58 0.18302 300.397 0 300.183 0H289.06C288.836 0 288.653 0.18302 288.653 0.406711V35.5465C288.653 37.9969 290.636 39.9797 293.086 39.9797H344.799C347.25 39.9797 349.243 37.9969 349.243 35.5465V0.406711C349.243 0.18302 349.06 0 348.836 0" fill="white"/>
<path d="M421.861 39.2577L399.146 23.6909H416.828C419.278 23.6909 421.271 21.698 421.271 19.2476V4.44331C421.271 1.99288 419.278 0 416.828 0H360.285C360.061 0 359.888 0.172852 359.888 0.406711V39.5831C359.888 39.8068 360.071 39.9797 360.285 39.9797H371.408C371.632 39.9797 371.815 39.7966 371.815 39.5831V16.9395L405.186 39.8068C405.358 39.9288 405.552 39.9797 405.755 39.9797H421.617C422.013 39.9797 422.176 39.4713 421.851 39.2476M372.008 8.20539H409.131C409.243 8.20539 409.334 8.2969 409.334 8.40874V15.272C409.334 15.3838 409.243 15.4753 409.131 15.4753H372.008C371.896 15.4753 371.805 15.3838 371.805 15.272V8.40874C371.805 8.2969 371.896 8.20539 372.008 8.20539Z" fill="white"/>
<path d="M131.662 8.21556C131.886 8.21556 132.069 8.03254 132.069 7.80884V0.406711C132.069 0.18302 131.886 0 131.662 0H75.9633C73.5027 0 71.52 1.99288 71.52 4.44331V35.5465C71.52 37.9969 73.5027 39.9797 75.9633 39.9797H131.662C131.886 39.9797 132.069 39.7966 132.069 39.5831V32.181C132.069 31.9573 131.886 31.7743 131.662 31.7743H83.6603C83.5485 31.7743 83.4671 31.6828 83.4671 31.5709V24.2908C83.4671 24.1789 83.5485 24.0874 83.6603 24.0874H128.592C128.805 24.0874 128.998 23.9044 128.998 23.6807V16.2786C128.998 16.0549 128.805 15.8719 128.592 15.8719H83.6603C83.5485 15.8719 83.4671 15.7804 83.4671 15.6685V8.38841C83.4671 8.27656 83.5485 8.18505 83.6603 8.18505H131.662V8.21556Z" fill="white"/>
<path d="M503.029 110H528.993V103.219H507.799V103.261H505.118C504.06 103.261 504.078 102.212 504.078 102.212V64.7889H495.843V102.754C495.843 109.699 503.034 109.995 503.034 109.995L503.029 110Z" fill="#EA3424"/>
<path d="M568.846 64.7889V102.212C568.846 102.212 568.865 103.261 567.807 103.261H565.126V103.219H549.462V103.261H546.786C545.728 103.261 545.746 102.212 545.746 102.212V64.7889H537.506V102.754C537.506 109.699 544.697 109.995 544.697 109.995H562.276H569.895C569.895 109.995 577.086 109.699 577.086 102.754V64.7889H568.846Z" fill="#EA3424"/>
<path d="M624.919 75.5V71.2411C624.919 64.2964 617.728 64 617.728 64H592.499C592.499 64 585.308 64.2964 585.308 71.2411V82.7502C585.308 89.6994 592.499 89.9958 592.499 89.9958H612.959V89.9548H615.64C616.698 89.9548 616.68 91.0036 616.68 91.0036V92.5038V102.996C616.68 102.996 616.693 104.045 615.64 104.045H612.959V104.004H597.268V104.045H594.587C593.529 104.045 593.547 102.996 593.547 102.996V98.5H585.308V102.754C585.308 109.704 592.499 109.995 592.499 109.995H617.728C617.728 109.995 624.919 109.699 624.919 102.754V91.2452C624.919 84.3006 617.728 84.0042 617.728 84.0042H597.268V84.0452H594.587C593.529 84.0452 593.547 82.9964 593.547 82.9964V81.4962V70.9994C593.547 70.9994 593.534 69.9506 594.587 69.9506H597.268V69.9917H612.959V69.9506H615.64C616.698 69.9506 616.68 70.9994 616.68 70.9994V75.4954H624.919V75.5Z" fill="#EA3424"/>
<path d="M443.81 110H452.656V94.4054H480.18C480.18 94.4054 487.371 94.1091 487.371 87.2145V71.98C487.371 65.0855 480.18 64.7891 480.18 64.7891H452.656H443.81V110ZM479.131 86.6719C479.131 86.6719 479.149 87.7116 478.091 87.7116H475.41V87.6705H452.656V71.5195H475.41V71.4784H478.091C479.149 71.4784 479.131 72.5181 479.131 72.5181V86.6719Z" fill="#EA3424"/>
<path d="M413.738 65.336H340.484C337.314 65.336 334.724 67.926 334.724 71.0951V103.981C334.724 107.15 337.314 109.74 340.484 109.74H413.738C416.962 109.74 419.556 107.15 419.556 103.981V71.0951C419.556 67.926 416.966 65.336 413.738 65.336ZM406.538 100.005H347.223V75.4133H406.538V100.005Z" fill="#EA3424"/>
<path d="M230.509 65.4318H211.207L143 109.644H162.302L230.509 65.4318Z" fill="#EA3424"/>
<path d="M231.899 109.644H212.597L144.391 65.4318H163.693L231.899 109.644Z" fill="#EA3424"/>
<path d="M243.39 65.2539C240.572 65.2539 238.288 67.5248 238.288 70.32V92.9278H309.668V99.5396H238.288V109.676H317.972C320.79 109.676 323.074 107.41 323.074 104.606V65.2539H243.39ZM309.668 82.7958H251.694V75.386H309.668V82.7912V82.7958Z" fill="#EA3424"/>
</g>
<defs>
<clipPath id="clip0_252_601">
<rect width="625" height="110" fill="white"/>
</clipPath>
</defs>
</svg>
